<svg width="465" height="366" viewBox="0 0 465 366" fill="none" xmlns="http://www.w3.org/2000/svg">
<path d="M302.186 30.4807L325.036 12.0535" stroke="black" stroke-width="2" stroke-linecap="round"/>
<path d="M166.562 129.62C169.326 128.146 170.985 125.934 171.906 123.354C173.86 117.884 175.34 115.211 177.587 113.875C179.835 112.538 193.784 104.138 192.87 110.757C192.568 112.947 189.946 113.247 186.877 114.466" stroke="black" stroke-width="2" stroke-linecap="round"/>
<path d="M187.201 96.8238C189.879 91.7838 194.071 85.2491 196.76 81.3452C198.81 78.3687 200.722 74.6377 196.76 68.4461C191.808 60.7067 169.879 37.4884 186.279 36.1985C199.4 35.1666 225.046 41.7266 227.925 36.1986C234.067 24.4051 246.094 1.3342 253.907 3.39805C263.674 5.97786 265.667 43.2006 270.86 44.8591C276.054 46.5175 315.27 58.1267 303.845 67.156C292.42 76.1853 274.338 81.3452 275.099 87.979C275.52 91.6536 275.888 97.6419 276.132 104.195M181.895 111.75C180.953 117.655 182.871 121.513 190.152 120.462C212.729 117.202 229.799 107.966 237.508 113.399C245.217 118.832 274.953 145.453 276.054 132.957C276.222 131.046 276.33 129.126 276.389 126.307" stroke="black" stroke-width="2" stroke-linecap="round"/>
<path d="M304.582 77.6577C308.818 73.0583 309.867 68.4257 308.153 64.8686C307.805 64.1472 306.728 64.2794 306.236 64.9112C301.683 70.7565 283.386 78.8748 276.275 84.4202C276.226 84.4584 276.183 84.4975 276.149 84.5494C275.711 85.2179 275 88.0932 275.282 89.0826C275.559 90.0502 275.965 98.2225 276.166 102.934C276.188 103.441 276.588 103.847 277.083 103.961C278.549 104.3 280.803 105.345 283.618 108.33C284.331 109.086 285.795 108.473 285.703 107.438C285.153 101.24 285.106 93.5291 286.154 92.0309C288.426 88.7858 291.314 87.6084 294.447 85.5814C295.552 84.8659 299.683 82.9756 304.582 77.6577Z" fill="black"/>
<path d="M271.467 146.69C274.61 148.675 280.851 149.282 282.484 146.69C283.299 145.396 283.822 141.703 284.135 136.805C282.372 136.362 280.258 128.512 276.573 127.038C276.497 131.596 276.254 134.138 275.463 135.499C271.03 143.124 240.271 114.692 235.375 112.615C230.768 110.66 199.927 119.15 191.211 120.772C184.239 122.069 182.025 118.156 180.935 116.535C181.304 119.852 184.316 128.783 188.69 129.716C192.499 130.528 232.869 118.874 236.805 121.805C248.678 130.648 268.87 145.048 271.467 146.69Z" fill="black"/>
<path d="M176.697 113.771C178.411 110.763 184.447 101.66 193.65 104.862" stroke="black" stroke-width="2" stroke-linecap="round"/>
<path d="M176.144 114.879C177.767 109.926 185.094 97.1599 192.176 100.228" stroke="black" stroke-width="2" stroke-linecap="round"/>
<path d="M179.277 108.248C180.321 98.8958 183.195 89.6782 186.934 92.5728C187.453 93.1087 188.258 94.7434 187.324 96.9947" stroke="black" stroke-width="2" stroke-linecap="round"/>
<path d="M278.6 111.412C274.759 109.918 266.729 108.446 265.332 114.516" stroke="black" stroke-width="2" stroke-linecap="round"/>
<path d="M285.233 120.042C278.462 115.845 265.924 110.688 266.855 118.778" stroke="black" stroke-width="2" stroke-linecap="round"/>
<path d="M281.808 123.163C276.729 120.369 267.107 116.504 267.559 122.346C267.596 122.821 268.016 123.16 268.491 123.196C271.83 123.455 277.89 125.294 280.748 131.21C283.857 137.648 286.754 139.957 287.814 140.307" stroke="black" stroke-width="2" stroke-linecap="round"/>
<path d="M325.405 49.2791L338.673 45.5935" stroke="black" stroke-width="2" stroke-linecap="round"/>
<path d="M176.513 13.8994L164.351 1" stroke="black" stroke-width="2" stroke-linecap="round"/>
<path d="M156.611 30.48L121.599 20.5293" stroke="black" stroke-width="2" stroke-linecap="round"/>
<path d="M154.4 58.4915L129.339 61.4398" stroke="black" stroke-width="2" stroke-linecap="round"/>
<path d="M180.926 206.633C169.246 191.637 170.152 169.787 172.916 157.006C174.61 151.264 184.047 123.181 163.864 136.457C154.588 142.558 115.306 225.641 195.367 242.001C195.92 242.114 196.309 242.666 196.201 243.22C193.458 257.347 200.193 271.427 196.414 291.225" stroke="black" stroke-width="2" stroke-linecap="round"/>
<path d="M179.093 207.567C183.024 206.83 207.471 198.385 216.684 209.222" stroke="black" stroke-width="2" stroke-linecap="round"/>
<path d="M249.115 211.397C262.752 203.699 276.203 212.385 288.181 214.756" stroke="black" stroke-width="2" stroke-linecap="round"/>
<path d="M285.234 214.02C293.969 205.778 301.582 179.323 293.067 149.573C291.415 143.803 291.896 129.251 302.855 135.733C316.649 143.892 358.361 241.469 266.467 242.391C265.82 242.398 265.294 243.002 265.437 243.633C268.661 257.794 269.231 273.934 269.111 290.816" stroke="black" stroke-width="2" stroke-linecap="round"/>
<path d="M295.552 127.407C291.357 119.171 282.594 103.365 276.302 104.223C275.044 104.394 272.05 105.252 270.86 107.139" stroke="black" stroke-width="2" stroke-linecap="round"/>
<path d="M260.782 162.436C258.088 172.144 256.737 173.004 252.818 177.305C252.818 173.055 252.087 165.92 252.087 162.949C239.245 162.949 228.409 157.693 224.592 155.065C224.731 163.977 216.395 169.805 216.395 169.805C216.395 169.805 217.59 173.404 218.274 181.46C218.823 187.904 217.248 186.659 216.395 185.231C213.937 177.278 209.908 179.403 208.198 181.46C187.244 147.321 219.469 140.725 225.618 141.353C230.263 137.377 236.741 134.261 241.293 133.804C257.721 132.156 265.153 146.695 260.782 162.436Z" fill="black"/>
<path d="M216.315 191.515C218.547 204.998 233.519 214.693 244.325 203.771C255.131 192.848 252.968 172.856 251.814 163.526" stroke="black" stroke-width="2" stroke-linecap="round"/>
<path d="M243.48 212.898C244.571 209.631 243.577 207.432 242.608 207.013C236.791 212.543 227.969 210.49 224.697 207.139C223.534 208.245 224.212 211.516 224.697 212.521C230.999 219.76 239.966 215.705 243.48 212.898Z" fill="black"/>
<path d="M220.37 231.712L220.885 230.912C223.585 226.722 228.886 225.049 233.502 226.931V226.931C237.65 228.622 242.416 227.455 245.312 224.038L249.116 219.55" stroke="black" stroke-width="2" stroke-linecap="round"/>
<path d="M207.911 180.478C206.614 183.687 207.831 190.798 216.316 190.798" stroke="black" stroke-width="2" stroke-linecap="round"/>
<path d="M211.954 182.695C211.761 183.227 211.916 184.488 214.105 185.274" stroke="black" stroke-width="2" stroke-linecap="round"/>
<path d="M251.695 189.33C254.658 188.151 256.749 183.787 255.944 176.799" stroke="black" stroke-width="2" stroke-linecap="round"/>
<path d="M243.717 180.634C244.589 180.093 244.828 178.9 244.251 177.97C243.674 177.04 242.5 176.724 241.628 177.265C240.756 177.806 240.516 178.998 241.093 179.929C241.67 180.859 242.845 181.174 243.717 180.634Z" fill="black"/>
<path d="M228.569 182.061C229.616 181.556 230.128 180.447 229.712 179.584C229.296 178.722 228.11 178.432 227.062 178.937C226.015 179.442 225.503 180.551 225.919 181.414C226.335 182.276 227.521 182.566 228.569 182.061Z" fill="black"/>
<path d="M223.686 176.062C224.091 175.128 225.839 173.4 229.583 173.961" stroke="black" stroke-width="2" stroke-linecap="round"/>
<path d="M241.377 173.844C242.214 173.566 244.492 173.176 246.905 173.844" stroke="black" stroke-width="2" stroke-linecap="round"/>
<path d="M234.919 180.11C234.664 182.34 234.487 186.864 235.848 187.113" stroke="black" stroke-width="2" stroke-linecap="round"/>
<path d="M236.217 198.009C233.608 198.766 233.773 196.681 231.795 194.852" stroke="black" stroke-width="2" stroke-linecap="round"/>
<path d="M347.373 363.435L338.509 328.84C332.842 306.72 312.908 291.25 290.074 291.25H175.228C152.248 291.25 132.227 306.913 126.697 329.218L118.066 364.032" stroke="black" stroke-width="2" stroke-linecap="round"/>
<path d="M126.834 323.696H51.0244C30.6454 323.696 12.3055 336.064 4.66829 354.958L1 364.033" stroke="black" stroke-width="2" stroke-linecap="round"/>
<path d="M343.427 341.671H432.097C446.113 341.671 458.73 350.167 464 363.155V363.155" stroke="black" stroke-width="2" stroke-linecap="round"/>
</svg>
