<svg width="342" height="82" viewBox="0 0 342 82" fill="none" xmlns="http://www.w3.org/2000/svg">
<g clip-path="url(#clip0_37_583)">
<path d="M29.1484 82.6406C36.7719 82.6406 42.9219 76.4906 42.9219 68.8672V55.0938H29.1484C21.525 55.0938 15.375 61.2438 15.375 68.8672C15.375 76.4906 21.525 82.6406 29.1484 82.6406Z" fill="#0ACF83"/>
<path d="M15.375 41.3203C15.375 33.6969 21.525 27.5469 29.1484 27.5469H42.9219V55.0938H29.1484C21.525 55.0938 15.375 48.9438 15.375 41.3203Z" fill="#A259FF"/>
<path d="M15.375 13.7734C15.375 6.15 21.525 0 29.1484 0H42.9219V27.5469H29.1484C21.525 27.5469 15.375 21.3969 15.375 13.7734Z" fill="#F24E1E"/>
<path d="M42.9219 0H56.6953C64.3188 0 70.4688 6.15 70.4688 13.7734C70.4688 21.3969 64.3188 27.5469 56.6953 27.5469H42.9219V0Z" fill="#FF7262"/>
<path d="M70.4688 41.3203C70.4688 48.9438 64.3188 55.0938 56.6953 55.0938C49.0719 55.0938 42.9219 48.9438 42.9219 41.3203C42.9219 33.6969 49.0719 27.5469 56.6953 27.5469C64.3188 27.5469 70.4688 33.6969 70.4688 41.3203Z" fill="#1ABCFE"/>
</g>
<path d="M152.632 6.43506H190.959C199.045 6.43506 205.609 12.9463 205.609 20.9661V58.9812C205.609 67.0011 199.045 73.5123 190.959 73.5123H152.632C144.546 73.5123 137.982 67.0011 137.982 58.9812V20.9661C137.982 12.9463 144.546 6.43506 152.632 6.43506Z" fill="#FFD02F"/>
<path d="M184.975 14.8123H177.549L183.734 25.5915L170.124 14.8123H162.699L169.504 27.9935L155.274 14.8123H147.849L155.274 31.5865L147.849 65.1351H155.274L169.504 29.1845L162.699 65.1351H170.124L183.734 26.8024L177.549 65.1351H184.975L198.584 23.1895L184.975 14.8123Z" fill="#050038"/>
<g clip-path="url(#clip1_37_583)">
<path d="M298.047 0.0973446C297.737 0.130016 296.769 0.244688 295.915 0.345266C292.472 0.737969 288.568 1.77194 285.142 3.21526C272.743 8.396 263.411 19.7626 260.836 32.7999C260.23 35.9006 260.083 37.424 260.083 40.9999C260.083 45.6092 260.541 48.7899 261.755 52.8092C265.723 65.9613 276.055 76.2766 289.241 80.2606C293.21 81.4592 296.408 81.9173 301 81.9173C305.609 81.9173 308.79 81.4592 312.809 80.2453C325.961 76.2766 336.277 65.9446 340.261 52.7586C341.459 48.7899 341.917 45.5919 341.917 40.9999C341.917 39.048 341.82 36.8186 341.705 35.9973C340.376 26.5186 336.472 18.548 329.963 12.0367C323.467 5.57533 315.529 1.65662 306.247 0.327969C304.968 0.147313 299.047 -0.0179679 298.047 0.0973446ZM284.681 25.9273C285.553 26.19 285.96 26.436 286.551 27.026C287.699 28.1919 287.962 28.8306 287.962 30.5847C287.962 31.8986 287.912 32.144 287.519 32.832C286.763 34.1107 285.009 35.292 283.796 35.324C282.942 35.3419 282.977 34.964 283.911 33.9806C285.157 32.6846 285.337 32.1933 285.337 30.2567C285.322 28.388 285.092 27.7493 284.223 27.224C283.501 26.7813 282.715 26.814 281.566 27.354C278.581 28.7826 275.35 33.538 274.089 38.4099C272.415 44.9039 275.383 50.1013 280.27 49.2153C281.696 48.9527 284.386 47.5766 285.553 46.4927C286.519 45.6092 286.519 45.5919 286.616 44.4939C286.831 42.196 288.453 39.9013 290.62 38.8353C291.618 38.342 291.866 38.2946 293.21 38.2946C294.489 38.2946 294.784 38.3599 295.407 38.7027C297.391 39.8366 296.981 42.4759 294.834 42.4759C293.588 42.4759 292.947 41.8353 293.851 41.4932C294.737 41.1652 294.406 39.9339 293.375 39.6559C292.161 39.3433 290.783 40.1639 289.914 41.7379C288.863 43.6406 288.815 45.9046 289.814 46.936C290.783 47.9693 291.996 47.1512 292.932 44.8033C293.423 43.6073 294.128 42.9667 294.949 42.9667C295.67 42.9667 295.803 43.41 295.489 44.7559C295.029 46.838 295.342 47.3786 296.638 46.7406C297.063 46.5426 297.769 46.0852 298.195 45.7572L298.998 45.1166L299.541 42.2786C300.132 39.0979 300.359 38.67 301.573 38.4426C302.739 38.2273 303.002 38.8026 302.574 40.622L302.343 41.6406L303.197 40.7693C305.214 38.7027 307.691 37.6866 308.545 38.5399C309.003 38.998 308.953 39.5733 308.297 41.6053C307.987 42.574 307.559 44.1006 307.364 44.9686C307.069 46.28 307.051 46.5926 307.217 46.8059C307.742 47.4286 309.348 46.788 310.775 45.394L311.611 44.5759L311.711 42.754C311.808 40.6547 312.003 39.9013 312.561 39.228C313.087 38.6053 314.038 38.1472 314.546 38.2773C315.054 38.4099 315.054 38.9006 314.596 40.3446C313.955 42.3286 314.023 46.9033 314.679 46.9033C314.941 46.9033 316.285 45.4939 317.139 44.3133L317.777 43.442L317.269 42.9193C316.383 41.9839 316.17 41.3779 316.17 39.8513C316.17 38.7379 316.253 38.3273 316.53 37.784C316.991 36.9333 317.711 36.3106 318.565 36.0627C319.465 35.7846 320.581 36.2427 321.039 37.0633C321.5 37.8993 321.385 39.7687 320.794 41.0499L320.369 41.9833H320.942C321.73 41.9833 322.041 41.7879 323.452 40.4593C324.19 39.7539 325.043 39.146 325.681 38.8507C328.191 37.6719 331.145 38.2773 331.635 40.0813C332.045 41.5253 331.145 42.5413 329.568 42.426C328.437 42.344 328.224 42.048 328.88 41.4932C330.061 40.5067 328.88 39.2459 327.191 39.704C326.272 39.9512 325.239 40.9827 324.699 42.1813C323.615 44.5759 324.19 47.3959 325.747 47.3959C326.37 47.3959 327.471 46.1653 327.896 44.9686C328.404 43.59 329.47 42.722 330.273 43.0339C330.717 43.1973 330.749 43.64 330.471 45.034C330.159 46.5606 330.111 47.9872 330.356 48.6426C330.454 48.8873 330.749 49.3479 331.029 49.6586C331.552 50.2486 331.57 50.462 331.127 50.7419C330.914 50.8893 330.633 50.8246 329.946 50.4472C328.995 49.954 328.174 49.068 327.879 48.232L327.699 47.7412L327.043 48.232C326.665 48.4946 326.075 48.7899 325.731 48.8873C324.37 49.248 322.696 48.3146 321.911 46.7406C321.597 46.132 321.5 44.3459 321.73 43.6573C321.861 43.2793 321.861 43.2793 321.335 43.542C321.057 43.6899 320.467 43.8526 320.009 43.9026C319.253 43.9859 319.137 44.0679 318.385 45.0186C317.319 46.3447 315.431 48.1346 314.661 48.5126C313.022 49.3306 312.481 49.1007 312.053 47.4107L311.758 46.28L311.052 46.9033C310.151 47.6913 308.347 48.6426 307.313 48.8726C306.33 49.0853 305.279 48.7726 304.853 48.1166C304.216 47.1333 304.429 45.0513 305.444 42.246C306.197 40.1639 305.657 40.1319 303.755 42.1159C302.344 43.6073 301.738 44.6733 301.345 46.3299C300.935 48.0519 300.442 48.6746 299.329 48.9373C298.655 49.0853 298.342 48.6746 298.475 47.7739L298.573 47.0506L297.949 47.4786C297.063 48.0846 295.947 48.6426 295.177 48.8553C294.406 49.068 293.39 48.8399 293.145 48.412C292.702 47.6592 292.702 47.6592 292.014 48.1993C290.52 49.4133 288.388 49.068 287.307 47.4613L286.961 46.9533L285.88 47.9539C282.762 50.8073 278.861 52.086 275.973 51.2C272.299 50.0866 270.267 46.936 270.3 42.394C270.315 37.8346 272.332 33.0299 275.728 29.4713C277.647 27.4693 279.451 26.288 281.289 25.8453C282.615 25.5173 283.421 25.534 284.681 25.9273Z" fill="#00C4CC"/>
<path d="M317.924 37.5893C317.563 37.9493 317.696 39.3933 318.155 40.312C318.385 40.7873 318.63 41.1653 318.712 41.1653C318.777 41.1653 318.925 40.7873 319.04 40.3267C319.45 38.6226 318.712 36.8007 317.924 37.5893Z" fill="#00C4CC"/>
</g>
<defs>
<clipPath id="clip0_37_583">
<rect width="82" height="82" fill="white"/>
</clipPath>
<clipPath id="clip1_37_583">
<rect width="82" height="82" fill="white" transform="translate(260)"/>
</clipPath>
</defs>
</svg>
