<svg width="56" height="57" viewBox="0 0 56 57" fill="none" xmlns="http://www.w3.org/2000/svg">
<path d="M53.6667 37.1074V52.3404C53.6667 52.5401 53.4932 52.7041 53.2741 52.7113L8.85185 54.1832M53.6667 37.1074L45.5758 34.8958C45.5378 34.8854 45.4984 34.8802 45.4587 34.8802L38.6648 35.3504M53.6667 37.1074L38.5924 37.8566M8.85185 54.1832V39.3347M8.85185 54.1832L8.37925 54.0217M8.85185 39.3347L23.5185 38.6058M8.85185 39.3347L8.37925 39.1732M38.6648 35.3504L38.5924 37.8566M38.6648 35.3504L39 23.7438M38.1852 51.9559L38.5924 37.8566M38.5924 37.8566L23.5185 38.6058M39 23.7438H23.5185M39 23.7438L31.7294 21.5356C31.6878 21.523 31.6443 21.5165 31.6006 21.5165H17M23.5185 23.7438V38.6058M23.5185 23.7438L23.2663 23.6576M17 21.5165L16.1852 35.6226M17 21.5165L17.5307 21.6979M16.1852 35.6226L2.33333 37.1074M16.1852 35.6226L16.7811 35.865M23.5185 38.6058V52.6983M23.5185 38.6058L22.8744 38.3437M2.33333 37.1074V51.6987C2.33333 51.8534 2.43868 51.9919 2.59769 52.0462L2.94979 52.1665M2.33333 37.1074L2.94979 37.3181M17.5307 21.6979L16.7811 35.865M17.5307 21.6979L18.2073 21.929M16.7811 35.865L17.5554 36.18M17.5554 36.18L18.2073 21.929M17.5554 36.18L18.2508 36.4629M18.2073 21.929L18.9858 22.1951M18.9858 22.1951L18.2508 36.4629M18.9858 22.1951L19.4444 22.3517M18.2508 36.4629L18.9296 36.739M18.9296 36.739L19.4444 22.3517M18.9296 36.739L19.5148 36.9771M19.4444 22.3517L20.1352 22.5878M20.1352 22.5878L19.5148 36.9771M20.1352 22.5878L20.7294 22.7908M19.5148 36.9771L20.0873 37.21M20.0873 37.21L20.7294 22.7908M20.0873 37.21L20.6047 37.4204M20.7294 22.7908L21.3457 23.0014M21.3457 23.0014L20.6047 37.4204M21.3457 23.0014L21.8889 23.187M20.6047 37.4204L21.0741 37.6114M21.0741 37.6114L21.8889 23.187M21.0741 37.6114L21.6603 37.8499M21.8889 23.187L22.5098 23.3991M22.5098 23.3991L21.6603 37.8499M22.5098 23.3991L23.0142 23.5715M21.6603 37.8499L22.2302 38.0817M22.2302 38.0817L23.0142 23.5715M22.2302 38.0817L22.8744 38.3437M23.0142 23.5715L23.2663 23.6576M23.2663 23.6576L22.8744 38.3437M8.37925 54.0217V39.1732M8.37925 54.0217L7.87559 53.8496M8.37925 39.1732L7.87559 39.0011M7.87559 39.0011V53.8496M7.87559 39.0011L7.22222 38.7779M7.87559 53.8496L7.22222 53.6264M7.22222 53.6264V38.7779M7.22222 53.6264L6.67901 53.4408M7.22222 38.7779L6.67901 38.5923M6.67901 38.5923V53.4408M6.67901 38.5923L5.97376 38.3513M6.67901 53.4408L5.97376 53.1998M5.97376 53.1998V38.3513M5.97376 53.1998L5.59259 53.0696M5.97376 38.3513L5.59259 38.2211M5.59259 38.2211V53.0696M5.59259 38.2211L4.98434 38.0132M5.59259 53.0696L4.98434 52.8617M4.98434 52.8617V38.0132M4.98434 52.8617L4.24703 52.6098M4.98434 38.0132L4.24703 37.7613M4.24703 37.7613V52.6098M4.24703 37.7613L3.56624 37.5287M4.24703 52.6098L3.56624 52.3772M3.56624 52.3772V37.5287M3.56624 52.3772L2.94979 52.1665M3.56624 37.5287L2.94979 37.3181M2.94979 37.3181V52.1665M30.1455 6.72228L34.4665 6.3516C34.9414 6.31085 35.1899 6.8893 34.8258 7.1743C33.2291 8.42393 31.4271 10.099 31.7847 10.8582C32.3643 12.0889 34.3931 16.6016 33.0889 16.4649C31.7847 16.3281 28.5966 12.9094 27.7272 13.4564C26.8577 14.0034 23.3798 18.1059 22.6553 16.4649C21.9307 14.8239 25.2637 11.9522 24.1044 10.8582C22.9451 9.76419 19.6122 7.98645 21.6409 7.5762C23.027 7.29592 24.5116 7.19516 25.3368 7.17171C25.5505 7.16564 25.7366 7.03379 25.7949 6.84354C26.3676 4.97615 27.5056 2.03123 28.1619 3.06348C28.7682 4.01707 29.3452 5.5248 29.6432 6.4093C29.7108 6.60983 29.9195 6.74168 30.1455 6.72228Z" stroke="black"/>
</svg>
