<svg width="412" height="180" viewBox="0 0 412 180" fill="none" xmlns="http://www.w3.org/2000/svg">
<g clip-path="url(#clip0_33_562)">
<path d="M32.002 12.801C23.4685 12.801 18.137 17.066 16.002 25.5995C19.201 21.334 22.9355 19.7345 27.201 20.801C29.6365 21.408 31.377 23.174 33.3045 25.131C36.4415 28.3145 40.0725 32 48.002 32C56.535 32 61.867 27.7345 64.002 19.199C60.8025 23.467 57.0685 25.0665 52.8025 24C50.3675 23.3925 48.629 21.627 46.699 19.67C43.564 16.4865 39.934 12.801 32.002 12.801ZM16.002 32C7.46901 32 2.13701 36.2655 0.00201416 44.801C3.20101 40.533 6.93501 38.9335 11.201 40C13.6365 40.6075 15.377 42.373 17.3045 44.33C20.4415 47.5135 24.0725 51.199 32.002 51.199C40.535 51.199 45.867 46.934 48.002 38.4005C44.8025 42.666 41.0685 44.2655 36.8025 43.199C34.3675 42.592 32.629 40.826 30.699 38.869C27.564 35.6855 23.934 32 16.002 32Z" fill="#38B2AC"/>
</g>
<path fill-rule="evenodd" clip-rule="evenodd" d="M116.609 28.078C116.609 28.4295 116.713 28.6615 116.771 28.887C117.149 30.3535 117.961 31.612 118.925 32.76C120.298 34.396 121.98 35.713 123.702 36.9515C125.196 38.0255 126.721 39.0755 128.221 40.1415C128.478 40.3245 128.722 40.535 129.001 40.7595C128.761 40.8895 128.561 41.004 128.353 41.1095C126.373 42.1135 124.469 43.239 122.713 44.6025C121.655 45.4245 120.632 46.298 119.91 47.4395C118.747 49.2755 118.336 51.2315 119.202 53.32C119.455 53.93 119.841 54.457 120.386 54.8465C120.562 54.9725 120.76 55.0975 120.967 55.1465C121.496 55.271 122.035 55.3525 122.57 55.451L124.087 55.45C125.764 55.3005 127.29 54.726 128.67 53.774C130.826 52.286 132.278 50.291 132.903 47.7305C133.357 45.8695 133.375 44.0065 132.84 42.154C132.789 41.9824 132.73 41.8132 132.663 41.647C132.598 41.4805 132.522 41.3185 132.432 41.111L135.87 39.134L135.921 39.178C135.859 39.3825 135.792 39.5865 135.736 39.793C135.327 41.285 135.056 42.803 135.153 44.3515C135.257 46.0015 135.718 47.546 136.684 48.9245C137.465 50.0395 139.326 50.081 140.156 48.962C140.45 48.5645 140.736 48.149 140.95 47.7055C141.511 46.548 142.03 45.37 142.565 44.2L142.659 43.986C142.62 44.54 142.575 45.0265 142.555 45.5135C142.523 46.274 142.567 47.03 142.827 47.7535C143.05 48.3725 143.428 48.835 144.137 48.9165C144.622 48.972 145.009 48.75 145.365 48.4685C145.918 48.0321 146.376 47.4879 146.711 46.869C147.661 45.1235 148.637 43.3885 149.499 41.599C150.431 39.6635 151.246 37.6715 152.111 35.703L152.254 35.354C152.459 36.1575 152.601 36.9445 152.864 37.6895C153.169 38.554 153.546 39.398 153.957 40.2185C154.152 40.606 154.129 40.8575 153.86 41.1825C152.732 42.5425 151.623 43.919 150.514 45.294C150.268 45.5975 150.024 45.9065 149.819 46.238C149.695 46.4473 149.614 46.6791 149.579 46.92C149.545 47.1418 149.598 47.3683 149.727 47.552C149.856 47.7357 150.051 47.8624 150.271 47.9055C150.716 48.0012 151.171 48.0337 151.625 48.002C153.173 47.888 154.579 47.3445 155.822 46.4235C157.433 45.2305 157.95 43.6025 157.56 41.673C157.454 41.1495 157.268 40.6405 157.086 40.136C157.005 39.9085 156.999 39.749 157.148 39.537C158.435 37.6985 159.535 35.748 160.558 33.7525C160.599 33.674 160.64 33.5955 160.711 33.5115C161.043 35.2365 161.542 36.899 162.436 38.4075C161.98 38.847 161.528 39.2455 161.12 39.6845C160.22 40.6515 159.44 41.7015 159.033 42.982C158.858 43.534 158.724 44.095 158.802 44.6845C158.923 45.6 159.673 46.195 160.573 45.9865C162.5 45.5405 164.164 44.6325 165.379 43.024C166.197 41.941 166.272 40.733 165.929 39.4675C165.835 39.1235 165.724 38.785 165.604 38.3905C166.079 38.243 166.543 38.066 167.022 37.9565C169.512 37.3885 171.974 37.4875 174.373 38.3865C175.774 38.9115 176.905 39.79 177.576 41.172C178.396 42.8615 177.943 44.4645 176.35 45.5325C176.202 45.632 176.032 45.7105 175.909 45.835C175.87 45.8807 175.84 45.934 175.822 45.9917C175.805 46.0494 175.799 46.1101 175.806 46.17C175.817 46.2315 175.979 46.3085 176.073 46.3075C176.596 46.3035 177.021 46.029 177.428 45.747C178.449 45.0405 179.194 44.09 179.355 42.8385L179.386 42.7445L179.348 41.9295C179.332 41.8825 179.359 41.836 179.356 41.8005C179.139 39.978 178.165 38.5645 176.749 37.4565C175.109 36.174 173.173 35.646 171.125 35.5625C169.464 35.491 167.805 35.7463 166.242 36.314C165.794 36.4765 165.349 36.669 164.898 36.8505C164.838 36.741 164.773 36.636 164.719 36.5275C164.256 35.5795 163.695 34.6735 163.571 33.5865C163.483 32.8145 163.375 32.0435 163.559 31.28C163.735 30.5455 163.965 29.8235 164.182 29.099C164.293 28.726 164.215 28.517 163.859 28.349C163.735 28.2871 163.603 28.2437 163.466 28.22C162.591 28.093 161.728 28.1655 160.88 28.412C160.58 28.4995 160.362 28.6675 160.296 28.9995C160.258 29.19 160.18 29.3725 160.126 29.5605C159.905 30.342 159.748 31.1385 159.39 31.883C158.493 33.7505 157.469 35.5475 156.421 37.3315C156.307 37.524 156.188 37.713 156.045 37.9465C155.677 37.1765 155.284 36.4855 155.165 35.6755C155.031 34.7595 154.925 33.845 155.153 32.936C155.322 32.258 155.544 31.5925 155.748 30.9235C155.844 30.6055 155.8 30.4385 155.512 30.271C155.366 30.1865 155.202 30.1115 155.038 30.087C154.141 29.9503 153.224 30.0253 152.361 30.306C152.089 30.394 151.947 30.5695 151.864 30.8495C151.62 31.6755 151.412 32.5215 151.069 33.307C149.682 36.487 148.255 39.6505 146.83 42.8135C146.532 43.474 146.184 44.1115 145.848 44.7545C145.763 44.9175 145.639 45.061 145.533 45.214C145.448 45.1135 145.415 45.0445 145.416 44.9755C145.418 44.569 145.37 44.1505 145.447 43.7575C145.685 42.5689 145.949 41.3855 146.236 40.208C146.471 39.235 146.745 38.271 147.005 37.3045C147.093 36.981 147.094 36.6785 146.862 36.4065C146.471 35.951 145.655 35.851 145.171 36.202L144.957 36.323L144.999 35.978C145.101 35.2385 145.121 34.5015 144.918 33.773C144.665 32.865 144.017 32.3425 143.075 32.3715C142.636 32.385 142.175 32.46 141.769 32.62C140.059 33.29 138.745 34.4765 137.626 35.904C137.522 36.0365 137.394 36.1476 137.247 36.231C135.801 37.033 134.35 37.825 132.899 38.62L131.285 39.5045C130.852 39.0915 130.458 38.663 130.012 38.2995C128.648 37.1875 127.263 36.103 125.89 35.0035C124.673 34.029 123.494 33.014 122.592 31.7235C121.921 30.7635 121.488 29.713 121.447 28.526C121.394 27.0135 121.823 25.6315 122.593 24.345C123.578 22.699 124.922 21.378 126.399 20.1815C127.961 18.9165 129.651 17.8425 131.403 16.862C133.853 15.4905 136.374 14.2765 139.076 13.475C141.847 12.653 144.659 12.1825 147.559 12.5105C148.699 12.6395 149.806 12.9005 150.822 13.458C151.601 13.8845 152.239 14.443 152.536 15.316C152.829 16.175 152.82 17.0455 152.617 17.918C152.205 19.685 151.237 21.1415 150.02 22.443C148.023 24.5765 145.587 26.029 142.844 26.9885C141.268 27.5409 139.627 27.8909 137.962 28.03C136.597 28.1445 135.261 28.0235 133.969 27.549C133.114 27.2345 132.369 26.7535 131.77 26.0555C131.663 25.9305 131.526 25.795 131.326 25.912C131.131 26.027 131.096 26.213 131.162 26.4015C131.271 26.7145 131.372 27.0405 131.543 27.3205C131.971 28.023 132.596 28.5325 133.284 28.9695C134.606 29.81 136.083 30.0925 137.614 30.158C139.938 30.2585 142.206 29.9115 144.441 29.288C147.633 28.398 150.408 26.826 152.633 24.346C154.486 22.281 155.81 19.9505 156.093 17.1365C156.232 15.763 156.084 14.4175 155.441 13.1645C154.744 11.807 153.635 10.7975 152.309 10.102C150.378 9.0895 148.294 8.5 146.143 8.5H143.988C141.383 8.5 138.864 9.2465 136.416 10.137C134.563 10.8115 132.746 11.6075 130.982 12.4885C127.141 14.408 123.563 16.7225 120.625 19.905C119.161 21.4905 117.921 23.24 117.208 25.3C116.993 25.915 116.808 26.5401 116.653 27.173M130.572 45.1795C130.406 47.409 129.395 49.2165 127.744 50.6805C126.815 51.5035 125.749 52.0895 124.508 52.2955C124.058 52.37 123.598 52.388 123.161 52.2015C122.539 51.9355 122.399 51.383 122.387 50.7945C122.369 49.8565 122.697 49.0085 123.148 48.2015C123.736 47.1495 124.598 46.3475 125.518 45.5985C126.968 44.418 128.541 43.419 130.152 42.476L130.274 42.426C130.523 43.346 130.641 44.2545 130.572 45.1795ZM143.151 35.49C143.034 36.202 142.887 36.9145 142.679 37.6045C141.96 39.993 141.036 42.3075 140.038 44.591C139.853 45.0135 139.585 45.399 139.351 45.7995C139.312 45.8611 139.264 45.9172 139.21 45.9665C138.921 46.252 138.647 46.237 138.501 45.8635C138.331 45.4295 138.226 44.965 138.136 44.5055C138.076 44.197 138.09 43.873 138.071 43.557C138.091 41.31 138.776 39.268 139.939 37.367C140.419 36.583 140.941 35.836 141.738 35.34C141.987 35.1858 142.255 35.0669 142.536 34.987C142.961 34.8675 143.222 35.064 143.151 35.49ZM151.733 46.424L154.818 42.8225C154.946 44.16 152.673 46.83 151.733 46.424ZM161.585 44.0005C161.367 44.1255 161.129 44.2155 160.906 44.331C160.701 44.437 160.634 44.33 160.628 44.154C160.625 44.0322 160.641 43.9106 160.674 43.7935C161.091 42.3245 161.857 41.0705 162.998 40.0505L163.078 40.0095C163.62 41.527 162.993 43.1935 161.585 44.0005Z" fill="#CB6699"/>
<path d="M238.15 32.1L270.15 0H289.85L248.05 41.8L238.15 32.1ZM270.15 64H289.85L272.8 46.95L289.85 29.55H270.15L253.1 46.75L270.15 64Z" fill="#3FB6D3"/>
<path d="M272.8 46.95L262.8 36.95L253.1 46.75L262.8 56.5499L272.8 46.95Z" fill="#27AACD"/>
<path d="M289.85 64L272.8 46.95L262.8 56.5499L270.15 64H289.85Z" fill="#19599A"/>
<path d="M262.8 56.5499L278.2 52.3499L272.8 46.95L262.8 56.5499Z" fill="url(#paint0_linear_33_562)"/>
<path d="M361.675 40.2601L367.015 6.04011C367.2 4.87511 368.765 4.59511 369.315 5.64011L375.055 16.3801L361.675 40.2601ZM399.645 48.5751L394.55 17.0551C394.395 16.0751 393.17 15.6751 392.465 16.3801L360.355 48.5751L378.125 58.5501C378.675 58.8527 379.292 59.0113 379.92 59.0113C380.548 59.0113 381.165 58.8527 381.715 58.5501L399.645 48.5751ZM385.22 21.0751L381.105 13.2501C380.645 12.3601 379.385 12.3601 378.925 13.2501L360.85 45.4751L385.22 21.0751Z" fill="#F58220"/>
<path d="M63.335 165.22C61.055 165.8 59.645 165.245 58.38 163.345C55.54 159.09 52.405 155.03 49.38 150.895C48.99 150.36 48.585 149.835 48.08 149.17C44.5 154 40.925 158.6 37.57 163.385C36.37 165.095 35.11 165.84 32.87 165.235L46.33 147.17L33.8 130.855C35.955 130.435 37.445 130.65 38.765 132.58C41.68 136.84 44.895 140.895 48.1 145.185C51.325 140.91 54.5 136.85 57.5 132.63C58.705 130.92 60 130.27 62.165 130.9C60.525 133.075 58.92 135.215 57.305 137.34C55.125 140.205 52.985 143.105 50.725 145.91C49.92 146.91 50.05 147.56 50.77 148.505C54.95 154 59.08 159.55 63.335 165.22ZM0.665024 146.87C1.02502 145.065 1.26502 143.225 1.76502 141.455C4.76502 130.74 17.065 126.285 25.515 132.925C30.465 136.82 31.695 142.31 31.45 148.5H3.55002C3.13002 159.605 11.125 166.31 21.315 162.89C24.89 161.69 26.995 158.89 28.05 155.39C28.585 153.635 29.47 153.36 31.12 153.86C30.275 158.24 28.36 161.9 24.36 164.19C18.36 167.62 9.79502 166.51 5.29002 161.745C2.63002 158.945 1.50002 155.46 1.00002 151.695C0.925024 151.095 0.770024 150.505 0.650024 149.91C0.660024 148.897 0.665024 147.883 0.665024 146.87ZM3.60002 146.125H28.815C28.65 138.095 23.65 132.39 16.815 132.34C9.31503 132.28 3.92502 137.85 3.60002 146.125Z" fill="black"/>
<path d="M172.386 131.396L150.337 118.594C148.947 117.802 147.136 117.802 145.735 118.594L123.451 131.396C122.016 132.222 121 133.774 121 135.433V161.004C121 162.664 122.042 164.215 123.477 165.046L129.365 168.389C132.179 169.776 133.173 169.776 134.454 169.776C138.62 169.776 141 167.256 141 162.861V137.616C141 137.26 140.815 136.729 140.465 136.729H137.653C137.297 136.729 136.5 137.26 136.5 137.616V162.861C136.5 164.809 134.738 166.747 131.445 165.101L125.361 161.595C125.149 161.479 125 161.248 125 161.004V135.433C125 135.192 125.278 134.95 125.491 134.826L147.703 122.046C147.91 121.928 148.215 121.928 148.423 122.046L170.363 134.823C170.573 134.95 170.5 135.184 170.5 135.433V161.004C170.5 161.248 170.591 161.486 170.383 161.603L148.34 174.391C148.152 174.504 147.917 174.504 147.71 174.391L142.056 171.016C141.886 170.917 141.684 170.882 141.52 170.973C139.947 171.865 139.657 171.983 138.181 172.495C137.818 172.621 137.283 172.841 138.386 173.459L145.785 177.836C146.492 178.245 147.293 178.459 148.109 178.459C148.93 178.459 149.734 178.246 150.443 177.836L172.385 165.046C173.82 164.21 174.5 162.664 174.5 161.004V135.433C174.5 133.774 173.82 132.226 172.386 131.396ZM154.955 156.952C149.092 156.952 147.801 155.334 147.37 152.419C147.32 152.105 147.053 151.729 146.734 151.729H143.868C143.514 151.729 143.229 152.16 143.229 152.513C143.229 156.246 145.259 160.769 154.956 160.769C161.975 160.769 166 158.041 166 153.214C166 148.428 162.766 147.172 155.958 146.271C149.077 145.361 148.379 144.902 148.379 143.29C148.379 141.961 148.97 140.188 154.065 140.188C158.618 140.188 160.296 141.165 160.986 144.234C161.045 144.522 161.309 144.729 161.606 144.729H164.484C164.66 144.729 164.829 144.658 164.953 144.531C165.073 144.396 165.137 144.225 165.121 144.042C164.675 138.758 161.165 136.295 154.065 136.295C147.749 136.295 143.982 138.963 143.982 143.433C143.982 148.282 147.73 149.622 153.793 150.222C161.045 150.932 161.61 151.993 161.61 153.419C161.61 155.896 159.621 156.952 154.955 156.952Z" fill="#83CD29"/>
<path fill-rule="evenodd" clip-rule="evenodd" d="M276.019 137.406C276.822 139.728 277.4 142.098 277.59 144.554C277.826 147.602 277.718 150.628 277.075 153.625C277.058 153.708 277.021 153.785 276.993 153.865C276.792 153.866 276.586 153.841 276.389 153.871C274.724 154.133 273.061 154.404 271.398 154.673C269.679 154.952 267.958 155.219 266.242 155.517C265.634 155.622 264.882 155.496 264.636 156.337C264.629 156.36 264.559 156.364 264.519 156.377L264.602 151.352L264.517 139.226L265.318 139.088C266.628 138.874 267.938 138.656 269.249 138.448C270.814 138.199 272.379 137.958 273.945 137.715C274.635 137.608 275.327 137.509 276.019 137.406Z" fill="#439934"/>
<path fill-rule="evenodd" clip-rule="evenodd" d="M262.865 171.027C262.02 170.3 261.145 169.606 260.335 168.842C255.977 164.731 252.789 159.892 251.219 154.059C250.786 152.453 250.498 150.822 250.405 149.163C250.34 148.002 250.246 146.83 250.328 145.675C250.547 142.603 250.991 139.561 251.892 136.602L251.941 136.533C252.029 136.649 252.155 136.752 252.199 136.884C253.079 139.474 253.952 142.066 254.82 144.659C257.549 152.809 260.275 160.961 263.008 169.109C263.062 169.268 263.2 169.399 263.3 169.542L262.865 171.027Z" fill="#45A538"/>
<path fill-rule="evenodd" clip-rule="evenodd" d="M276.019 137.406C275.327 137.509 274.635 137.607 273.945 137.714C272.379 137.956 270.813 138.198 269.249 138.446C267.938 138.655 266.628 138.872 265.318 139.087L264.517 139.224L264.511 138.702C264.484 138.272 264.439 137.843 264.434 137.414C264.399 134.675 264.378 131.936 264.344 129.197C264.323 127.482 264.291 125.768 264.256 124.054C264.235 122.989 264.212 121.924 264.164 120.86C264.138 120.289 264.046 119.72 264.008 119.149C263.987 118.82 264.016 118.489 264.023 118.159C264.431 118.951 264.831 119.748 265.251 120.534C265.914 121.776 266.971 122.691 267.923 123.689C271.684 127.635 274.355 132.223 276.019 137.406Z" fill="#46A037"/>
<path fill-rule="evenodd" clip-rule="evenodd" d="M264.518 156.377C264.559 156.364 264.629 156.36 264.636 156.337C264.881 155.496 265.634 155.621 266.242 155.516C267.958 155.219 269.679 154.951 271.398 154.673C273.061 154.403 274.724 154.132 276.389 153.871C276.585 153.84 276.791 153.865 276.993 153.865C276.682 154.975 276.436 156.109 276.042 157.188C275.594 158.413 275.052 159.608 274.477 160.779C273.615 162.526 272.549 164.165 271.3 165.661C270.34 166.815 269.271 167.881 268.199 168.935C267.607 169.517 266.908 169.992 266.258 170.515L266.09 170.4L265.482 169.881L264.854 168.505C264.426 166.899 264.192 165.247 264.158 163.586L264.169 163.305L264.255 162.092C264.283 161.678 264.321 161.265 264.339 160.85C264.403 159.359 264.459 157.868 264.518 156.377Z" fill="#409433"/>
<path fill-rule="evenodd" clip-rule="evenodd" d="M264.518 156.377C264.459 157.868 264.403 159.359 264.339 160.85C264.322 161.265 264.284 161.679 264.255 162.093L263.873 162.237C263.023 159.736 262.173 157.262 261.342 154.781C259.967 150.676 258.608 146.565 257.235 142.46C256.127 139.146 255.01 135.835 253.885 132.526C253.833 132.371 253.682 132.25 253.577 132.113L256.025 127.612C256.109 127.758 256.22 127.895 256.273 128.052C257.407 131.403 258.535 134.756 259.657 138.111C261.115 142.476 262.564 146.844 264.021 151.21C264.079 151.384 264.175 151.545 264.266 151.741L264.601 151.351L264.518 156.377Z" fill="#4FAA41"/>
<path fill-rule="evenodd" clip-rule="evenodd" d="M253.577 132.114C253.682 132.251 253.833 132.372 253.886 132.527C255.01 135.835 256.127 139.146 257.236 142.46C258.609 146.566 259.967 150.677 261.342 154.781C262.173 157.262 263.023 159.737 263.873 162.238L264.256 162.093L264.17 163.306L264.093 163.586C263.96 164.914 263.848 166.245 263.686 167.57C263.604 168.234 263.431 168.886 263.3 169.543C263.201 169.4 263.062 169.269 263.008 169.11C260.275 160.962 257.549 152.81 254.82 144.66C253.952 142.066 253.079 139.475 252.199 136.885C252.155 136.753 252.029 136.65 251.941 136.534L253.577 132.114Z" fill="#4AA73C"/>
<path fill-rule="evenodd" clip-rule="evenodd" d="M264.601 151.351L264.266 151.741C264.175 151.545 264.079 151.384 264.021 151.21C262.564 146.844 261.115 142.476 259.657 138.111C258.534 134.756 257.406 131.403 256.273 128.052C256.22 127.895 256.109 127.758 256.025 127.612L259.052 123.63C259.148 123.757 259.284 123.871 259.333 124.014C260.174 126.475 261.007 128.938 261.835 131.403C262.608 133.705 263.37 136.011 264.153 138.31C264.205 138.464 264.388 138.573 264.51 138.703L264.516 139.225C264.545 143.266 264.573 147.309 264.601 151.351Z" fill="#57AE47"/>
<path fill-rule="evenodd" clip-rule="evenodd" d="M264.511 138.702C264.389 138.572 264.206 138.463 264.154 138.309C263.371 136.01 262.609 133.705 261.836 131.403C261.008 128.938 260.175 126.475 259.334 124.014C259.285 123.87 259.149 123.757 259.053 123.629C260.038 122.665 260.992 121.667 262.016 120.747C262.926 119.93 263.658 119.054 263.692 117.763C263.693 117.71 263.721 117.656 263.764 117.506L264.024 118.159C264.017 118.49 263.988 118.82 264.009 119.149C264.047 119.72 264.139 120.289 264.165 120.86C264.213 121.924 264.236 122.989 264.257 124.054C264.292 125.768 264.323 127.482 264.345 129.197C264.378 131.936 264.4 134.675 264.435 137.414C264.439 137.844 264.484 138.273 264.511 138.702Z" fill="#60B24F"/>
<path fill-rule="evenodd" clip-rule="evenodd" d="M263.299 169.543C263.431 168.885 263.604 168.233 263.685 167.569C263.848 166.245 263.959 164.913 264.092 163.585L264.125 163.58L264.158 163.586C264.192 165.247 264.426 166.899 264.855 168.505C264.767 168.621 264.643 168.724 264.596 168.855C264.233 169.88 263.89 170.913 263.525 171.938C263.475 172.078 263.336 172.187 263.238 172.31L262.864 171.027L263.299 169.543Z" fill="#A9AA88"/>
<path fill-rule="evenodd" clip-rule="evenodd" d="M263.238 172.31C263.336 172.187 263.476 172.078 263.525 171.938C263.891 170.913 264.234 169.881 264.597 168.855C264.643 168.724 264.767 168.621 264.856 168.505L265.483 169.882C265.359 170.058 265.188 170.216 265.119 170.412L263.917 173.942C263.868 174.083 263.699 174.183 263.586 174.303L263.238 172.31Z" fill="#B6B598"/>
<path fill-rule="evenodd" clip-rule="evenodd" d="M263.586 174.303C263.699 174.184 263.868 174.083 263.917 173.942L265.119 170.412C265.188 170.217 265.359 170.058 265.483 169.882L266.091 170.4C265.797 170.69 265.634 171.025 265.732 171.449L265.548 172.053C265.464 172.156 265.342 172.246 265.301 172.365C264.881 173.566 264.481 174.774 264.058 175.976C264.005 176.128 263.856 176.248 263.751 176.382C263.697 175.688 263.641 174.996 263.586 174.303Z" fill="#C2C1A7"/>
<path fill-rule="evenodd" clip-rule="evenodd" d="M263.752 176.381C263.856 176.247 264.005 176.127 264.059 175.975C264.481 174.774 264.882 173.566 265.301 172.364C265.343 172.246 265.464 172.156 265.548 172.052L265.294 174.825C265.226 174.903 265.127 174.972 265.095 175.063C264.807 175.87 264.536 176.683 264.248 177.49C264.188 177.657 264.074 177.804 263.985 177.959C263.906 177.856 263.765 177.756 263.758 177.648C263.733 177.227 263.75 176.804 263.752 176.381Z" fill="#CECDB7"/>
<path fill-rule="evenodd" clip-rule="evenodd" d="M263.984 177.959C264.073 177.803 264.187 177.656 264.247 177.49C264.536 176.684 264.806 175.871 265.094 175.063C265.126 174.972 265.225 174.904 265.293 174.825L265.299 176.645L264.69 178.207L263.984 177.959Z" fill="#DBDAC7"/>
<path fill-rule="evenodd" clip-rule="evenodd" d="M264.69 178.208L265.299 176.646L265.425 178.494L264.69 178.208Z" fill="#EBE9DC"/>
<path fill-rule="evenodd" clip-rule="evenodd" d="M265.732 171.449C265.634 171.025 265.797 170.69 266.091 170.4L266.259 170.515L265.732 171.449Z" fill="#CECDB7"/>
<path fill-rule="evenodd" clip-rule="evenodd" d="M264.158 163.586L264.125 163.58L264.092 163.585L264.17 163.306L264.158 163.586Z" fill="#4FAA41"/>
<path fill-rule="evenodd" clip-rule="evenodd" d="M380 118.552C363.326 118.552 349.806 132.069 349.806 148.746C349.806 162.087 358.458 173.404 370.455 177.397C371.963 177.677 372.517 176.742 372.517 175.945C372.517 175.225 372.489 172.846 372.476 170.323C364.076 172.15 362.304 166.761 362.304 166.761C360.93 163.271 358.951 162.343 358.951 162.343C356.211 160.469 359.158 160.508 359.158 160.508C362.189 160.72 363.786 163.619 363.786 163.619C366.479 168.234 370.85 166.9 372.573 166.129C372.844 164.178 373.626 162.845 374.49 162.091C367.783 161.329 360.733 158.739 360.733 147.17C360.733 143.873 361.913 141.18 363.844 139.065C363.53 138.305 362.497 135.234 364.136 131.075C364.136 131.075 366.671 130.263 372.441 134.17C374.85 133.5 377.434 133.164 380 133.152C382.565 133.164 385.15 133.499 387.563 134.169C393.326 130.262 395.859 131.074 395.859 131.074C397.502 135.232 396.468 138.304 396.155 139.064C398.091 141.179 399.263 143.872 399.263 147.169C399.263 158.766 392.199 161.319 385.475 162.067C386.559 163.004 387.524 164.842 387.524 167.658C387.524 171.698 387.489 174.95 387.489 175.944C387.489 176.748 388.033 177.689 389.563 177.393C401.553 173.396 410.194 162.082 410.194 148.746C410.194 132.07 396.675 118.552 380 118.552Z" fill="#181616"/>
<path d="M361.242 161.903C361.176 162.053 360.94 162.098 360.725 161.995C360.505 161.897 360.382 161.693 360.453 161.542C360.518 161.387 360.755 161.345 360.973 161.448C361.193 161.547 361.318 161.753 361.242 161.903L361.242 161.903ZM362.465 163.267C362.322 163.401 362.04 163.339 361.849 163.127C361.651 162.917 361.614 162.636 361.761 162.5C361.91 162.367 362.183 162.43 362.381 162.64C362.578 162.853 362.617 163.132 362.466 163.268L362.465 163.267ZM363.656 165.006C363.471 165.135 363.168 165.014 362.981 164.746C362.796 164.477 362.796 164.154 362.986 164.026C363.173 163.897 363.471 164.013 363.661 164.279C363.845 164.552 363.845 164.875 363.656 165.006ZM365.287 166.686C365.122 166.869 364.769 166.82 364.511 166.571C364.247 166.328 364.174 165.981 364.339 165.799C364.507 165.616 364.862 165.667 365.121 165.914C365.385 166.157 365.464 166.504 365.288 166.686L365.287 166.686ZM367.537 167.662C367.463 167.898 367.124 168.006 366.782 167.905C366.44 167.801 366.217 167.525 366.287 167.286C366.357 167.047 366.698 166.936 367.043 167.043C367.384 167.146 367.608 167.421 367.537 167.662ZM370.008 167.842C370.017 168.091 369.727 168.297 369.368 168.302C369.007 168.311 368.714 168.109 368.711 167.864C368.711 167.612 368.995 167.409 369.356 167.402C369.714 167.395 370.009 167.595 370.009 167.842L370.008 167.842ZM372.307 167.451C372.35 167.694 372.101 167.943 371.744 168.01C371.394 168.075 371.069 167.924 371.024 167.683C370.981 167.434 371.235 167.185 371.585 167.12C371.942 167.059 372.262 167.205 372.307 167.451Z" fill="#181616"/>
<defs>
<linearGradient id="paint0_linear_33_562" x1="261.682" y1="58.1799" x2="275.412" y2="49.6994" gradientUnits="userSpaceOnUse">
<stop stop-color="#1B4E94"/>
<stop offset="0.63" stop-color="#1A5497"/>
<stop offset="1" stop-color="#195A9B"/>
</linearGradient>
<clipPath id="clip0_33_562">
<rect width="64" height="64" fill="white"/>
</clipPath>
</defs>
</svg>
