<svg width="265" height="163" viewBox="0 0 265 163" fill="none" xmlns="http://www.w3.org/2000/svg">
<path d="M124.84 140.51C128.379 141.333 138.42 141.893 140.395 135.572" stroke="black" stroke-width="2" stroke-linecap="round"/>
<path d="M130.025 126.683C135.95 132.362 145.333 141.497 150.271 134.09L153.234 129.152" stroke="black" stroke-width="2" stroke-linecap="round"/>
<path d="M130.025 111.375C136.774 117.795 157.481 133.202 166.567 127.671C168.213 126.601 171.554 123.178 171.752 118.042" stroke="black" stroke-width="2" stroke-linecap="round"/>
<path d="M146.321 102.733C154.633 109.235 172.986 120.856 179.9 115.325C186.813 109.795 179.653 102.157 175.208 99.0297L145.333 74.833" stroke="black" stroke-width="2" stroke-linecap="round"/>
<path d="M60.3976 79.2778C64.1013 81.2232 68.1874 86.2686 69.5331 90.8824C71.2615 96.8081 76.1173 101.911 78.1748 103.474" stroke="black" stroke-width="2" stroke-linecap="round"/>
<path d="M134.469 46.1925C129.531 44.2172 115.704 40.2174 104.84 41.9951C93.9767 43.7728 94.9644 40.2667 89.7793 37.3038L60.3976 19.2798" stroke="black" stroke-width="2" stroke-linecap="round"/>
<path d="M173.974 44.7112L184.838 39.0322M183.603 108.66C188.146 107.474 195.701 100.759 198.911 97.5488L211.503 90.8822" stroke="black" stroke-width="2" stroke-linecap="round"/>
<path d="M174.961 71.1297C167.719 75.4917 149.58 80.8577 134.963 69.4014" stroke="black" stroke-width="2" stroke-linecap="round"/>
<path d="M134.963 69.4017C129.531 77.0558 116.791 91.6725 109.285 88.9072C101.779 86.1419 105.17 78.0434 107.803 74.3398C115.457 59.0317 139.407 31.6747 173.974 44.7113" stroke="black" stroke-width="2" stroke-linecap="round"/>
<path d="M125.334 131.621C125.136 138.929 122.782 142.073 121.63 142.732C116.013 145.942 109.779 141.003 111.518 136.99C112.713 134.766 114.313 130.18 114.964 128.164C116.478 123.473 125.531 124.313 125.334 131.621Z" stroke="black" stroke-width="2" stroke-linecap="round"/>
<path d="M104.841 138.535C96.5445 140.312 96.4457 131.868 100.149 127.671C101.336 126.326 104.297 123.562 108.05 120.511C111.803 117.459 114.223 120.062 114.964 121.745C115.942 123.967 113.136 136.757 104.841 138.535Z" stroke="black" stroke-width="2" stroke-linecap="round"/>
<path d="M91.0138 128.659C81.9277 128.461 82.3721 120.511 86.0757 117.054C88.9563 114.009 96.2976 108.363 102.618 110.141C108.939 111.918 107.556 117.795 106.075 120.758C104.84 123.474 100.1 128.856 91.0138 128.659Z" stroke="black" stroke-width="2" stroke-linecap="round"/>
<path d="M93.9768 101.252C84.2981 98.882 76.1173 104.709 73.2368 107.919C71.2615 110.486 71.4261 113.433 71.7554 114.585C74.1256 120.511 85.0882 116.231 90.2732 113.351C95.5405 110.305 103.655 103.623 93.9768 101.252Z" stroke="black" stroke-width="2" stroke-linecap="round"/>
<path d="M107.31 12.3667C108.791 15.6588 111.309 23.7737 109.532 29.8969" stroke="black" stroke-width="2" stroke-linecap="round"/>
<path d="M116.445 18.5391C116.857 20.3497 117.68 24.7117 117.68 27.6745" stroke="black" stroke-width="2" stroke-linecap="round"/>
<path d="M147.308 1.00879L152.987 21.0081" stroke="black" stroke-width="2" stroke-linecap="round"/>
<path d="M163.357 9.89697L161.629 21.7484" stroke="black" stroke-width="2" stroke-linecap="round"/>
<path d="M178.665 18.5391L170.023 25.2055" stroke="black" stroke-width="2" stroke-linecap="round"/>
<circle cx="7.80694" cy="40.2663" r="7.65405" fill="black"/>
<path d="M20.3865 40.9207C33.3349 39.5875 53.6522 41.164 56.0535 51.1799C58.4548 61.1958 49.285 64.859 44.4 65.4387C25.8014 68.3948 1.14052 67.0037 1.14052 51.1799" stroke="black" stroke-width="2" stroke-linecap="round"/>
<circle cx="15.7079" cy="54.587" r="1.71595" stroke="black" stroke-width="2"/>
<path d="M30.2629 54.587C30.2629 55.4546 29.4678 56.303 28.3 56.303C27.1323 56.303 26.3372 55.4546 26.3372 54.587C26.3372 53.7195 27.1323 52.8711 28.3 52.8711C29.4678 52.8711 30.2629 53.7195 30.2629 54.587Z" stroke="black" stroke-width="2"/>
<circle cx="40.8922" cy="54.587" r="1.71595" stroke="black" stroke-width="2"/>
<circle cx="222.614" cy="132.609" r="7.16024" fill="black"/>
<path d="M234.256 127.424C238.598 127.424 251.006 127.424 256.842 127.424C261.57 127.424 263.846 128.47 263.846 135.79C263.846 142.903 263.788 152.116 263.846 155.834C263.887 158.448 262.586 161.342 258.243 161.76C253.901 162.178 236.473 161.934 228.302 161.76C225.268 161.76 219.898 160.039 219.898 153.045L219.898 145.202" stroke="black" stroke-width="2" stroke-linecap="round"/>
<path d="M231.256 139.77L242.119 147.177" stroke="black" stroke-width="2" stroke-linecap="round"/>
<path d="M242.119 147.176L261.872 128.905" stroke="black" stroke-width="2" stroke-linecap="round"/>
<path d="M227.305 153.596L235.269 142.732M247.126 142.732L257.921 153.596" stroke="black" stroke-width="2" stroke-linecap="round"/>
<path d="M226.196 11.8955L200.518 31.401C167.927 56.3384 199.777 84.3209 211.629 90.6581L249.405 66.4614" stroke="black" stroke-width="2" stroke-linecap="round"/>
</svg>
