<svg width="20" height="21" viewBox="0 0 20 21" fill="none" xmlns="http://www.w3.org/2000/svg">
<path d="M10 20.0002C14.6944 20.0002 18.5 16.2693 18.5 11.6669V10.5V9.5C18.5 8.5 17 7 15 8.00022C15 6.5 12.5 6 12 8.00022C12 6.5 11 6 10 6C9 6 8.3 7.07974 8.3 8.00022V3.00022C8.3 2.07974 7.53888 1.11133 6.6 1.11133C5.66112 1.11133 4.9 1.85752 4.9 2.77799V9.44466C4.9 8.52419 4.13888 7.778 3.2 7.778C2.26112 7.778 1.5 8.52419 1.5 9.44466V11.6669C1.5 16.2693 5.30558 20.0002 10 20.0002Z" fill="#FFFF00"/>
<path d="M4.9 9.44466V12.2224M4.9 9.44466V2.77799C4.9 1.85752 5.66112 1.11133 6.6 1.11133C7.53888 1.11133 8.3 2.07974 8.3 3.00022V8.00022C8.3 7.07974 9 6 10 6C11 6 12 6.5 12 8.00022C12.5 6 15 6.5 15 8.00022C17 7 18.5 8.5 18.5 9.5V10.5V11.6669C18.5 16.2693 14.6944 20.0002 10 20.0002C5.30558 20.0002 1.5 16.2693 1.5 11.6669V9.44466C1.5 8.52419 2.26112 7.778 3.2 7.778C4.13888 7.778 4.9 8.52419 4.9 9.44466Z" stroke="black" stroke-width="2" stroke-linecap="round" stroke-linejoin="round"/>
</svg>
