<svg width="402" height="383" viewBox="0 0 402 383" fill="none" xmlns="http://www.w3.org/2000/svg">
<path d="M17.4188 176.194C19.6642 176.194 21.4844 174.374 21.4844 172.129C21.4844 169.883 19.6642 168.063 17.4188 168.063C15.1735 168.063 13.3532 169.883 13.3532 172.129C13.3532 174.374 15.1735 176.194 17.4188 176.194Z" stroke="black" stroke-width="2"/>
<path d="M25.3855 172.543C33.5859 171.699 46.4531 172.697 47.9739 179.04C49.4948 185.383 43.6872 187.703 40.5936 188.07C28.8148 189.942 13.1967 189.061 13.1967 179.04" stroke="black" stroke-width="2" stroke-linecap="round"/>
<path d="M22.4226 182.136C22.9408 182.136 23.3608 181.716 23.3608 181.198C23.3608 180.68 22.9408 180.26 22.4226 180.26C21.9045 180.26 21.4844 180.68 21.4844 181.198C21.4844 181.716 21.9045 182.136 22.4226 182.136Z" stroke="black" stroke-width="2"/>
<path d="M31.492 181.198C31.492 181.654 31.0673 182.136 30.3974 182.136C29.7274 182.136 29.3028 181.654 29.3028 181.198C29.3028 180.742 29.7274 180.26 30.3974 180.26C31.0673 180.26 31.492 180.742 31.492 181.198Z" stroke="black" stroke-width="2"/>
<path d="M38.3722 182.136C38.8903 182.136 39.3104 181.716 39.3104 181.198C39.3104 180.68 38.8903 180.26 38.3722 180.26C37.854 180.26 37.434 180.68 37.434 181.198C37.434 181.716 37.854 182.136 38.3722 182.136Z" stroke="black" stroke-width="2"/>
<path d="M325.933 61.7327C328.006 61.7327 329.686 60.0525 329.686 57.9798C329.686 55.9072 328.006 54.227 325.933 54.227C323.861 54.227 322.18 55.9072 322.18 57.9798C322.18 60.0525 323.861 61.7327 325.933 61.7327Z" stroke="black" stroke-width="2"/>
<path d="M333.306 54.6961C336.056 54.6961 343.914 54.6961 347.611 54.6961C350.605 54.6961 352.046 55.3585 352.046 59.9945C352.046 64.4988 352.009 70.3336 352.046 72.6885C352.072 74.3441 351.248 76.1764 348.498 76.4413C345.748 76.7062 334.711 76.5517 329.536 76.4413C327.614 76.4413 324.213 75.3517 324.213 70.9221V65.9549" stroke="black" stroke-width="2" stroke-linecap="round"/>
<path d="M331.406 62.5145L338.286 67.2056" stroke="black" stroke-width="2" stroke-linecap="round"/>
<path d="M338.286 67.2056L350.796 55.6343" stroke="black" stroke-width="2" stroke-linecap="round"/>
<path d="M341.457 64.3909L344.875 67.831L348.294 71.2711" stroke="black" stroke-width="2" stroke-linecap="round"/>
<path d="M328.904 71.2711L333.948 64.3909" stroke="black" stroke-width="2" stroke-linecap="round"/>
<path d="M353.436 296.279C352.397 297.32 351.501 298.217 350.883 298.835C349.274 300.447 347.584 299.507 346.941 298.835L336.675 288.945C335.159 287.535 333.878 286.144 328.15 280.679C327.563 280.092 326.634 278.593 327.608 277.292C328.583 275.991 334.059 269.162 336.675 265.911C337.468 264.761 339.193 263.393 341.393 265.439C343.287 267.2 349.782 273.297 355.33 277.933" stroke="black" stroke-width="2" stroke-linecap="round"/>
<path d="M336.566 266.262C336.889 272.195 339.066 281.745 350.327 285.339" stroke="black" stroke-width="2" stroke-linecap="round"/>
<path d="M365.121 285.798C364.605 284.487 360.643 282.959 359.145 285.798C357.602 288.727 358.782 291.194 359.786 291.678C361.068 292.296 362.951 292.619 364.94 289.064" stroke="black" stroke-width="2" stroke-linecap="round"/>
<path d="M365.45 283.973C365.334 284.658 365.215 284.946 365.121 285.798C364.999 286.909 364.921 288.074 364.94 289.064C364.977 290.801 365.321 292 366.297 291.422C368.255 290.261 369.312 289.309 369.593 288.338C370.062 286.705 370.066 283.579 367.426 281.536C364.242 279.068 360.652 279.135 357.828 281.536C355.024 283.918 354.257 287.732 354.411 289.711C354.579 291.875 356.194 296.524 361.465 296.597C366.735 296.669 369.59 293.828 370.028 292.498" stroke="black" stroke-width="2" stroke-linecap="round"/>
<path d="M87.628 246.738C86.5037 242.398 82.7702 234.393 76.8332 237.099C70.8959 239.804 74.3592 244.652 76.8332 246.738C78.4979 247.865 82.0769 249.072 83.0739 244.878C84.0709 240.684 79.8693 238.959 78.6884 240.819C78.0657 241.552 77.3624 243.39 79.5318 244.878" stroke="black" stroke-width="2" stroke-linecap="round"/>
<path d="M114.223 36.5128C113.934 34.8806 115.641 33.6249 117.113 34.3879L119.584 35.6689C120.753 36.2748 122.145 36.2669 123.306 35.6476L125.763 34.3383C127.225 33.5586 128.947 34.7946 128.676 36.43L128.222 39.1759C128.007 40.4747 128.444 41.7962 129.392 42.7098L131.396 44.641C132.59 45.7913 131.947 47.811 130.308 48.0587L127.556 48.4747C126.254 48.6715 125.132 49.4962 124.556 50.6801L123.339 53.1829C122.614 54.6736 120.494 54.6857 119.752 53.2035L118.506 50.7147C117.917 49.5375 116.786 48.7257 115.482 48.5438L112.725 48.1594C111.083 47.9304 110.417 45.9183 111.597 44.7544L113.579 42.8003C114.517 41.876 114.939 40.5495 114.709 39.2532L114.223 36.5128Z" stroke="black" stroke-width="2"/>
<path d="M210.69 176.168V202.75" stroke="black" stroke-width="2" stroke-linecap="round"/>
<path d="M230.705 179.295V204.627" stroke="black" stroke-width="2" stroke-linecap="round"/>
<path d="M183.891 294.409C177.282 295.232 161.81 298.266 158.421 304.438C157.404 306.29 156.224 310.796 159.641 314.005C163.057 317.214 169.3 316.371 171.994 315.548L187.704 309.222" stroke="black" stroke-width="2" stroke-linecap="round"/>
<path d="M273.957 247.835C261.625 248.232 207.158 274.6 181.466 287.735C179.278 302.209 188.511 312.601 193.4 315.987C219.009 308.553 271.569 293.485 276.94 292.692C282.311 291.899 287.631 288.066 289.62 286.248C303.543 269.991 293.267 256.178 286.388 251.305C281.491 247.835 277.264 247.728 273.957 247.835Z" fill="black"/>
<path d="M158.442 244.146C167.179 244.729 205.295 259.502 223.356 267.244L182.053 287.883C163.568 293.304 152.213 291.518 148.745 290.35C128.728 280.706 136.57 256.913 144.524 248.1C149.649 243.737 155.311 243.938 158.442 244.146Z" fill="black"/>
<path d="M255.688 297.223C261.149 299.848 264.102 303.286 265.599 306.106C268.807 313.448 263.047 317.862 256.47 315.787C252.835 314.64 251.978 313.872 250.053 312.275C249.076 311.465 244.514 307.226 239.305 302.219" stroke="black" stroke-width="2" stroke-linecap="round"/>
<path d="M151.217 179.07L154.659 241.618C154.951 246.919 159.335 251.068 164.644 251.068H268.241C273.764 251.068 278.241 246.591 278.241 241.068V177.078C278.241 171.502 273.681 167.003 268.106 167.079L161.067 168.522C155.382 168.598 150.905 173.393 151.217 179.07Z" fill="black"/>
<rect x="154.397" y="252.163" width="123.844" height="5.94199" rx="2.971" fill="black"/>
<path d="M231.018 133.948C241.911 133.792 265.888 142.079 275.426 168.193" stroke="black" stroke-width="2" stroke-linecap="round"/>
<path d="M207.093 133.792C182.231 138.639 170.347 149.272 160.965 169.757" stroke="black" stroke-width="2" stroke-linecap="round"/>
<path d="M290.281 158.525L296.38 148.361" stroke="black" stroke-width="2" stroke-linecap="round"/>
<path d="M296.38 161.339L304.667 154.459" stroke="black" stroke-width="2" stroke-linecap="round"/>
<path d="M297.631 166.03C299.246 166.656 302.916 167.25 304.667 164.623" stroke="black" stroke-width="2" stroke-linecap="round"/>
<path d="M137.666 156.622L128.284 146.927" stroke="black" stroke-width="2" stroke-linecap="round"/>
<path d="M147.204 155.058L141.575 140.516" stroke="black" stroke-width="2" stroke-linecap="round"/>
<path d="M135.32 162.095L128.284 159.436" stroke="black" stroke-width="2" stroke-linecap="round"/>
<path d="M281.681 185.733C287.467 194.802 294.034 205.591 281.681 225.893" stroke="black" stroke-width="2" stroke-linecap="round"/>
<path d="M231.174 134.73C232.581 130.664 231.299 127.929 230.048 127.407C222.543 134.288 211.159 131.734 206.937 127.564C205.436 128.94 206.312 133.01 206.937 134.261C215.068 143.268 226.639 138.222 231.174 134.73Z" fill="black"/>
<path d="M197.868 159.749L198.498 158.781C202.039 153.347 208.929 151.178 214.944 153.603V153.603C220.345 155.781 226.533 154.27 230.323 149.849L235.24 144.112" stroke="black" stroke-width="2" stroke-linecap="round"/>
<path d="M148.924 191.492C146.579 197.017 143.796 210.412 151.426 219.794" stroke="black" stroke-width="2" stroke-linecap="round"/>
<path d="M252.735 70.8084C249.295 83.1615 247.575 84.2561 242.571 89.729C242.571 84.3202 241.642 75.2416 241.642 71.4613C225.258 71.4613 211.431 64.773 206.565 61.4289C206.74 72.7699 196.108 80.1851 196.108 80.1851C196.108 80.1851 197.633 84.7651 198.504 95.0156C199.201 103.216 197.197 101.631 196.108 99.8137C192.97 89.6941 187.828 92.3985 185.65 95.0156C158.914 51.5751 200.029 43.1815 207.872 43.9812C213.798 38.9214 222.063 34.9562 227.873 34.3746C248.826 32.2771 258.313 50.7783 252.735 70.8084Z" fill="black"/>
<path d="M196.474 107.546C199.288 124.729 218.18 137.085 231.813 123.165C245.446 109.246 242.718 83.7662 241.261 71.8765" stroke="black" stroke-width="2" stroke-linecap="round"/>
<path d="M185.341 93.951C183.62 98.1729 185.234 107.528 196.474 107.528" stroke="black" stroke-width="2" stroke-linecap="round"/>
<path d="M190.298 96.2699C190.049 97.1734 190.248 99.3139 193.034 100.648" stroke="black" stroke-width="2" stroke-linecap="round"/>
<path d="M240.882 105.339C244.551 103.81 247.137 98.1463 246.142 89.077" stroke="black" stroke-width="2" stroke-linecap="round"/>
<path d="M220.242 115.66C223.838 116.598 223.611 114.016 226.34 111.75" stroke="black" stroke-width="2" stroke-linecap="round"/>
<circle cx="230.978" cy="93.8147" r="2.34552" fill="black"/>
<circle cx="210.337" cy="94.1275" r="2.34552" fill="black"/>
<path d="M205.23 88.7642C205.724 87.311 207.854 84.6225 212.423 85.4944" stroke="black" stroke-width="2" stroke-linecap="round"/>
<path d="M227.122 85.9496C228.212 85.0056 231.176 83.684 234.315 85.9496" stroke="black" stroke-width="2" stroke-linecap="round"/>
<path d="M219.556 92.5171C219.192 95.6051 218.944 101.867 220.867 102.212" stroke="black" stroke-width="2" stroke-linecap="round"/>
<path d="M309.671 234.363C351.421 245.934 426.416 259.226 392.39 219.821C381.653 209.24 365.807 196.835 340.319 185.889" stroke="black" stroke-width="2" stroke-linecap="round"/>
<path d="M354.861 153.517C380.819 136.89 422.631 102.541 382.226 98.1626C341.82 93.7843 304.928 108.952 291.532 117.083" stroke="black" stroke-width="2" stroke-linecap="round"/>
<path d="M254.317 129.219C271.517 92.1598 299.351 15.3517 273.081 4.5936C240.243 -8.85407 197.711 29.9253 162.998 122.495" stroke="black" stroke-width="2" stroke-linecap="round"/>
<path d="M124.743 97.295C86.2769 76.2374 7.74876 43.8483 1.36894 82.7527C-5.01089 121.657 72.9335 154.109 112.703 165.471" stroke="black" stroke-width="2" stroke-linecap="round"/>
<path d="M122.914 185.889C66.7782 214.504 -3.55953 254.08 35.4012 274.706C51.3505 283.15 92.1628 277.99 110.927 270.328" stroke="black" stroke-width="2" stroke-linecap="round"/>
<ellipse cx="214.755" cy="373.218" rx="77.4023" ry="9.3821" fill="black"/>
<path d="M208.374 216.101L200.995 211.726C199.505 210.842 199.563 208.649 201.098 207.848L210.752 202.804M221.92 202.804L229.299 207.179C230.789 208.063 230.731 210.255 229.196 211.057L219.542 216.101M217.344 198.372L212.949 220.533" stroke="#00A3FF" stroke-width="2" stroke-linecap="round"/>
</svg>
