<svg width="370" height="170" viewBox="0 0 370 170" fill="none" xmlns="http://www.w3.org/2000/svg">
<path d="M11.5185 56.9381L6.51599 0.830566H61.484L56.476 56.9296L33.9665 63.1696L11.5185 56.9381Z" fill="#E44D26"/>
<path d="M34 58.4L52.189 53.357L56.4685 5.41797H34V58.4Z" fill="#F16529"/>
<path d="M34 26.2276H24.894L24.265 19.1806H34V12.2996H16.7445L16.9095 14.1456L18.6005 33.1091H34V26.2276ZM34 44.0991L33.9695 44.1076L26.306 42.0376L25.8165 36.5501H18.908L19.872 47.3546L33.9685 51.2676L34 51.2591V44.0991Z" fill="#EBEBEB"/>
<path d="M33.976 26.2276V33.1091H42.4495L41.651 42.0336L33.976 44.1051V51.2646L48.0835 47.3546L48.187 46.1921L49.804 28.0756L49.9715 26.2276H48.1175H33.976ZM33.976 12.2996V19.1806H50.598L50.736 17.6346L51.05 14.1456L51.2145 12.2996H33.976Z" fill="white"/>
<path d="M162.407 57.0616L157.38 0.676025H212.62L207.588 57.0531L184.966 63.3246L162.407 57.0616Z" fill="#1572B6"/>
<path d="M185.001 58.5309L203.28 53.4629L207.581 5.28589H185.001V58.5309Z" fill="#33A9DC"/>
<path d="M185.001 25.7145H194.152L194.784 18.633H185.001V11.7175H202.342L202.176 13.573L200.476 32.63H185.001V25.7145Z" fill="white"/>
<path d="M185.042 43.6744L185.011 43.6834L177.31 41.6039L176.817 36.0884H169.876L170.845 46.9469L185.01 50.8784L185.042 50.8694V43.6744Z" fill="#EBEBEB"/>
<path d="M193.563 32.3374L192.73 41.5984L185.017 43.6804V50.8754L199.194 46.9464L199.298 45.7779L200.501 32.3374H193.563Z" fill="white"/>
<path d="M185.024 11.7175V18.633H168.32L168.181 17.079L167.866 13.573L167.701 11.7175H185.024ZM185 25.7155V32.631H177.396L177.257 31.077L176.942 27.571L176.777 25.7155H185Z" fill="#EBEBEB"/>
<g clip-path="url(#clip0_33_483)">
<path d="M304.704 0.704102H367.296V63.2966H304.704V0.704102Z" fill="#F0DB4F"/>
<path d="M362.174 48.3679C361.715 45.5124 359.853 43.1139 354.338 40.8774C352.422 39.9969 350.285 39.3664 349.649 37.9144C349.423 37.0694 349.393 36.5934 349.536 36.0819C349.946 34.4219 351.928 33.9044 353.498 34.3804C354.51 34.7194 355.467 35.4989 356.045 36.7424C358.746 34.9934 358.74 35.0049 360.626 33.8029C359.936 32.7324 359.568 32.2384 359.116 31.7804C357.491 29.9659 355.277 29.0314 351.737 29.1029L349.893 29.3414C348.126 29.7879 346.442 30.7154 345.455 31.9589C342.492 35.3209 343.337 41.2049 346.942 43.6264C350.494 46.2924 355.712 46.8989 356.379 49.3919C357.027 52.4439 354.136 53.4319 351.262 53.0809C349.144 52.6404 347.966 51.5639 346.692 49.6064C344.348 50.9629 344.348 50.9629 341.938 52.3489C342.51 53.5984 343.11 54.1639 344.068 55.2464C348.602 59.8454 359.948 59.6194 361.983 52.6584C362.066 52.4194 362.614 50.8254 362.174 48.3679ZM338.731 29.4714H332.876L332.852 44.6074C332.852 47.8264 333.019 50.7774 332.495 51.6819C331.639 53.4609 329.419 53.2404 328.408 52.8954C327.378 52.3894 326.855 51.6699 326.248 50.6529C326.082 50.3609 325.957 50.1349 325.915 50.1174L321.155 53.0324C321.946 54.6569 323.112 56.0669 324.606 56.9829C326.837 58.3219 329.835 58.7324 332.971 58.0124C335.012 57.4179 336.773 56.1864 337.695 54.3119C339.028 51.8544 338.742 48.8799 338.73 45.5899C338.76 40.2224 338.731 34.8559 338.731 29.4714Z" fill="#323330"/>
</g>
<path d="M57.7 121.35L33.55 107.45C33.15 107.2 32.6 107.1 32 107.1C31.4 107.1 30.85 107.25 30.45 107.45L6.45 121.4C5.6 121.9 5 123.15 5 124.1V151.95C5 152.5 5.1 153.15 5.5 153.7L58.9 122.7C58.6 122.1 58.15 121.65 57.7 121.35Z" fill="#659AD3"/>
<path d="M5.34998 153.65C5.59998 154.05 5.94998 154.4 6.29998 154.6L30.4 168.55C30.8 168.8 31.35 168.9 31.95 168.9C32.55 168.9 33.1 168.75 33.5 168.55L57.5 154.6C58.35 154.1 58.95 152.85 58.95 151.9V124.05C58.95 123.6 58.9 123.1 58.65 122.65L5.34998 153.65Z" fill="#03599C"/>
<path d="M42.65 144.05C40.55 147.75 36.55 150.25 32 150.25C25.25 150.25 19.75 144.75 19.75 138C19.75 131.25 25.25 125.75 32 125.75C36.55 125.75 40.55 128.25 42.65 132L49.15 128.25C45.75 122.3 39.35 118.25 32 118.25C21.1 118.25 12.25 127.1 12.25 138C12.25 148.9 21.1 157.75 32 157.75C39.3 157.75 45.7 153.75 49.1 147.85L42.65 144.05Z" fill="white"/>
<path d="M210.7 121.35L186.55 107.45C186.15 107.2 185.6 107.1 185 107.1C184.4 107.1 183.85 107.25 183.45 107.45L159.45 121.4C158.6 121.9 158 123.15 158 124.1V151.95C158 152.5 158.1 153.15 158.5 153.7L211.9 122.7C211.6 122.1 211.15 121.65 210.7 121.35Z" fill="#D26383"/>
<path d="M158.35 153.65C158.6 154.05 158.95 154.4 159.3 154.6L183.4 168.55C183.8 168.8 184.35 168.9 184.95 168.9C185.55 168.9 186.1 168.75 186.5 168.55L210.5 154.6C211.35 154.1 211.95 152.85 211.95 151.9V124.05C211.95 123.6 211.9 123.1 211.65 122.65L158.35 153.65Z" fill="#9C033A"/>
<path d="M195.65 144.05C193.55 147.75 189.55 150.25 185 150.25C178.25 150.25 172.75 144.75 172.75 138C172.75 131.25 178.25 125.75 185 125.75C189.55 125.75 193.55 128.25 195.65 132L202.15 128.25C198.75 122.3 192.35 118.25 185 118.25C174.1 118.25 165.25 127.1 165.25 138C165.25 148.9 174.1 157.75 185 157.75C192.3 157.75 198.7 153.75 202.1 147.85L195.65 144.05Z" fill="white"/>
<path d="M194.05 136.9H196.65V134.25H198.85V136.9H201.5V139.1H198.85V141.7H196.65V139.1H194.05V136.9ZM203.3 136.9H205.9V134.25H208.1V136.9H210.75V139.1H208.1V141.7H205.9V139.1H203.3V136.9Z" fill="white"/>
<g clip-path="url(#clip1_33_483)">
<path d="M323.6 123.45L319.45 119.3V149.15L319.5 150.55C319.5 151.2 319.6 151.95 319.85 152.7L352.65 164.25L360.8 160.65L323.6 123.45Z" fill="#00C4B3"/>
<path d="M360.8 160.65L352.65 164.25L319.95 152.7C320.6 155.1 321.95 157.75 323.45 159.3L334.1 169.9L357.9 169.95L360.8 160.65Z" fill="#22D3C5"/>
<path d="M306.85 138.55C305.8 139.65 306.35 142 308 143.75L315.35 151.15L319.95 152.8C319.8 152.05 319.6 151.3 319.6 150.65L319.55 149.25L319.45 119.35M360.8 160.65L364.4 152.45L352.9 119.65C352.15 119.5 351.4 119.35 350.75 119.3L349.3 119.25L319.5 119.3" fill="#0075C9"/>
<path d="M360.8 160.65L369.65 157.75V133.4L359.45 123.15C357.95 121.65 355.3 120.25 352.85 119.65L364.4 152.45" fill="#00A8E1"/>
<path d="M351.25 115.1L343.85 107.75C342.15 106.05 339.85 105.55 338.65 106.6L319.45 119.3H349.2L350.65 119.35C351.3 119.35 352.05 119.45 352.8 119.7L351.25 115.1Z" fill="#00C4B3"/>
</g>
<defs>
<clipPath id="clip0_33_483">
<rect width="64" height="64" fill="white" transform="translate(304)"/>
</clipPath>
<clipPath id="clip1_33_483">
<rect width="64" height="64" fill="white" transform="translate(306 106)"/>
</clipPath>
</defs>
</svg>
