<svg width="20" height="24" viewBox="0 0 20 24" fill="none" xmlns="http://www.w3.org/2000/svg">
<path d="M17.6601 13.5564C18.2905 13.4537 18.6058 13.4024 18.7254 13.2573C18.8292 13.1315 18.8651 12.963 18.8217 12.8059C18.7716 12.6246 18.5047 12.4492 17.9709 12.0983L2.82237 2.1408C2.34052 1.82406 2.09959 1.66569 1.91979 1.68609C1.76365 1.70381 1.62492 1.7939 1.54522 1.92934C1.45346 2.0853 1.50014 2.36981 1.5935 2.93884L4.52867 20.8278C4.6321 21.4581 4.68381 21.7733 4.82904 21.8928C4.95494 21.9964 5.12344 22.0321 5.28055 21.9885C5.46177 21.9382 5.63689 21.6711 5.98714 21.1369L9.96289 15.073C10.034 14.9645 10.0695 14.9103 10.1156 14.8681C10.1565 14.8307 10.2032 14.8003 10.254 14.7782C10.3113 14.7533 10.3753 14.7428 10.5033 14.722L17.6601 13.5564Z" fill="#FFFF00" stroke="black" stroke-width="2" stroke-linecap="round" stroke-linejoin="round"/>
</svg>
