<svg width="56" height="57" viewBox="0 0 56 57" fill="none" xmlns="http://www.w3.org/2000/svg">
<path d="M53.6667 27.668V45.0771C53.6667 45.3054 53.4932 45.4928 53.2741 45.5011L8.85185 47.1832M53.6667 27.668L45.5758 25.1405C45.5378 25.1286 45.4984 25.1226 45.4587 25.1226L38.6648 25.66M53.6667 27.668L38.5924 28.5242M8.85185 47.1832V30.2135M8.85185 47.1832L8.37925 46.9986M8.85185 30.2135L23.5185 29.3804M8.85185 30.2135L8.37925 30.0289M38.6648 25.66L38.5924 28.5242M38.6648 25.66L39 12.3953M38.1852 44.6377L38.5924 28.5242M38.5924 28.5242L23.5185 29.3804M39 12.3953H23.5185M39 12.3953L31.7294 9.87162C31.6878 9.8572 31.6443 9.84985 31.6006 9.84985H17M23.5185 12.3953V29.3804M23.5185 12.3953L23.2663 12.2968M17 9.84985L16.1852 25.9711M17 9.84985L17.5307 10.0571M16.1852 25.9711L2.33333 27.668M16.1852 25.9711L16.7811 26.2481M23.5185 29.3804V45.4862M23.5185 29.3804L22.8744 29.081M2.33333 27.668V44.3437C2.33333 44.5206 2.43868 44.6789 2.59769 44.741L2.94979 44.8785M2.33333 27.668L2.94979 27.9088M17.5307 10.0571L16.7811 26.2481M17.5307 10.0571L18.2073 10.3213M16.7811 26.2481L17.5554 26.6081M17.5554 26.6081L18.2073 10.3213M17.5554 26.6081L18.2508 26.9314M18.2073 10.3213L18.9858 10.6253M18.9858 10.6253L18.2508 26.9314M18.9858 10.6253L19.4444 10.8044M18.2508 26.9314L18.9296 27.247M18.9296 27.247L19.4444 10.8044M18.9296 27.247L19.5148 27.519M19.4444 10.8044L20.1352 11.0741M20.1352 11.0741L19.5148 27.519M20.1352 11.0741L20.7294 11.3062M19.5148 27.519L20.0873 27.7852M20.0873 27.7852L20.7294 11.3062M20.0873 27.7852L20.6047 28.0257M20.7294 11.3062L21.3457 11.5468M21.3457 11.5468L20.6047 28.0257M21.3457 11.5468L21.8889 11.7589M20.6047 28.0257L21.0741 28.244M21.0741 28.244L21.8889 11.7589M21.0741 28.244L21.6603 28.5165M21.8889 11.7589L22.5098 12.0014M22.5098 12.0014L21.6603 28.5165M22.5098 12.0014L23.0142 12.1984M21.6603 28.5165L22.2302 28.7815M22.2302 28.7815L23.0142 12.1984M22.2302 28.7815L22.8744 29.081M23.0142 12.1984L23.2663 12.2968M23.2663 12.2968L22.8744 29.081M8.37925 46.9986V30.0289M8.37925 46.9986L7.87559 46.802M8.37925 30.0289L7.87559 29.8323M7.87559 29.8323V46.802M7.87559 29.8323L7.22222 29.5771M7.87559 46.802L7.22222 46.5468M7.22222 46.5468V29.5771M7.22222 46.5468L6.67901 46.3347M7.22222 29.5771L6.67901 29.365M6.67901 29.365V46.3347M6.67901 29.365L5.97376 29.0896M6.67901 46.3347L5.97376 46.0593M5.97376 46.0593V29.0896M5.97376 46.0593L5.59259 45.9105M5.97376 29.0896L5.59259 28.9408M5.59259 28.9408V45.9105M5.59259 28.9408L4.98434 28.7032M5.59259 45.9105L4.98434 45.6729M4.98434 45.6729V28.7032M4.98434 45.6729L4.24703 45.385M4.98434 28.7032L4.24703 28.4153M4.24703 28.4153V45.385M4.24703 28.4153L3.56624 28.1495M4.24703 45.385L3.56624 45.1192M3.56624 45.1192V28.1495M3.56624 45.1192L2.94979 44.8785M3.56624 28.1495L2.94979 27.9088M2.94979 27.9088V44.8785" stroke="black" stroke-linecap="round"/>
</svg>
