<svg width="380" height="410" viewBox="0 0 380 410" fill="none" xmlns="http://www.w3.org/2000/svg">
<path d="M243.218 362.991C231.846 328.068 213.155 268.877 207.834 243.938C207.812 243.834 207.75 243.749 207.659 243.693C184.475 229.273 159.398 221.428 150.963 219.863C150.86 219.844 150.761 219.87 150.675 219.929C129.193 234.947 115.903 244.126 107.687 251.94C86.7957 271.812 82.8189 309.917 83.184 334.72C83.184 334.861 83.2625 334.986 83.3842 335.054L91.9972 339.812C92.2092 339.929 92.4722 339.829 92.5586 339.604C99.5891 320.707 112.7 305.794 121.279 278.692C121.273 278.912 121.461 279.105 121.693 279.099C145.003 278.504 145.939 277.161 166.974 270.734C179.526 310.771 215.372 350.278 233.153 367.271C233.265 367.378 233.424 367.403 233.568 367.344L242.992 363.469C243.182 363.391 243.282 363.186 243.218 362.991Z" fill="black"/>
<path d="M179.839 131.666C177.876 128.722 156.533 120.874 164.444 93.1251C157.552 90.0525 156.407 82.7224 162.743 82.7251C169.642 82.4146 171.652 76.943 172.072 73.3679C172.342 68.5498 174.215 64.2225 174.973 63.4861" stroke="black" stroke-width="2" stroke-linecap="round"/>
<path d="M174.506 86.2258C173.596 85.8203 173.352 84.3856 173.96 83.0212C174.568 81.6569 175.799 80.8796 176.708 81.2851C177.618 81.6906 177.862 83.1253 177.254 84.4897C176.646 85.854 175.415 86.6313 174.506 86.2258Z" fill="black"/>
<path d="M182.548 79.7576C181.966 78.0087 179.831 74.8599 175.943 76.2543" stroke="black" stroke-width="2" stroke-linecap="round"/>
<path d="M179.367 107.137C175.778 109.405 173.047 109.262 169.524 105.113" stroke="black" stroke-width="2" stroke-linecap="round"/>
<path d="M207.004 92.3794C206.999 93.6729 206.29 96.2886 203.495 96.4028" stroke="black" stroke-width="2" stroke-linecap="round"/>
<path d="M236.184 92.4942C232.139 108.314 218.741 115.46 208.808 121.122C203.952 114.659 197.179 101.487 201.653 102.459C206.355 103.481 216.214 93.9071 213.707 88.4382C210.765 82.0216 203.472 86.3285 200.431 90.7391L199.63 82.1622C202.917 77.933 207.174 69.8206 197.906 71.2036C188.638 72.5866 178.749 66.5591 174.963 63.3726C169.229 53.3236 162.513 32.9459 181.517 31.8268C197.322 30.896 209.903 47.0496 216.448 59.3755C224.103 60.7133 241.698 70.9253 236.184 92.4942Z" fill="black"/>
<path d="M208.783 119.925C203.989 122.221 201.038 124.6 198.29 131.077" stroke="black" stroke-width="2" stroke-linecap="round"/>
<path d="M204.072 177.633C202.586 188.097 201.662 215.932 209.646 244.441C209.747 244.802 209.339 245.099 209.032 244.884C200.488 238.9 178.167 226.36 149.447 218.939C149.256 218.89 149.129 218.716 149.151 218.52C151.019 202.721 152.025 169.51 142.906 160.823C142.856 160.776 142.799 160.745 142.731 160.73C123.926 156.389 84.0241 142.559 72.3883 120.955C72.3726 120.923 72.3609 120.89 72.353 120.854C71.5168 116.948 70.9437 108.973 75.1795 107.599C75.2619 107.572 75.3522 107.577 75.4347 107.61C103.209 118.841 134.164 128.144 173.95 135.199" stroke="black" stroke-width="2" stroke-linecap="round"/>
<path d="M204.071 190.981C223.072 211.709 240.752 219.602 254.23 225.491C263.647 230.291 284.066 233.735 274.93 218.853C235.673 169.861 227.037 161.342 217.811 152.902C212.513 148.054 210.156 145.05 196.809 141.517" stroke="black" stroke-width="2" stroke-linecap="round"/>
<path d="M259.031 377.844C259.817 372.741 244.571 365.282 241.954 363.908L233.907 367.049C234.535 370.974 236.524 373.264 237.44 373.918L259.031 377.844Z" stroke="black" stroke-width="2"/>
<path d="M88.2638 346.439C91.4044 345.811 91.5339 341.336 91.2081 339.176L84.1419 335.643C81.9827 336.232 76.2119 337.763 70.4019 339.176C64.5919 340.59 65.3652 342.513 66.4762 343.298L88.2638 346.439Z" stroke="black" stroke-width="2"/>
<path d="M129.042 384.518C129.042 398.069 140.026 409.053 153.577 409.053C167.128 409.053 178.113 398.069 178.113 384.518C178.113 370.967 167.128 359.982 153.577 359.982C140.026 359.982 129.042 370.967 129.042 384.518Z" fill="black"/>
<path d="M297.111 387.462L10.5352 334.858" stroke="black" stroke-width="2" stroke-linecap="round"/>
<path d="M3.94419 41.7866H14.5436C16.1697 41.7866 17.4879 43.1048 17.4879 44.7309V70.2479C17.4879 71.874 16.1697 73.1922 14.5436 73.1922H3.94419C2.31811 73.1922 0.999916 71.874 0.999916 70.2479V44.7309C0.999916 43.1048 2.31811 41.7866 3.94419 41.7866Z" stroke="black" stroke-width="2"/>
<path d="M55.0089 34.0223C55.3229 34.3835 55.8804 34.3835 56.1945 34.0223L59.5784 30.1177C60.0181 29.6093 59.6569 28.8184 58.9856 28.8184H52.2177C51.5464 28.8184 51.1853 29.6093 51.6249 30.1177L55.0089 34.0223Z" fill="black"/>
<path fill-rule="evenodd" clip-rule="evenodd" d="M74.7052 0H36.6259C34.4578 0 32.7002 1.7576 32.7002 3.9257V25.1245C32.7002 27.2926 34.4578 29.0502 36.6259 29.0502H74.7052C76.8733 29.0502 78.6309 27.2926 78.6309 25.1245V3.9257C78.6309 1.7576 76.8733 0 74.7052 0ZM46.8328 13.3476H71.9572C72.8245 13.3476 73.5275 14.0507 73.5275 14.9179C73.5275 15.7852 72.8245 16.4882 71.9572 16.4882H46.8328C45.9655 16.4882 45.2625 15.7852 45.2625 14.9179C45.2625 14.0507 45.9655 13.3476 46.8328 13.3476ZM39.3739 14.7399C39.2757 14.7399 39.1962 14.8194 39.1962 14.9176C39.1962 15.0157 39.2757 15.0953 39.3739 15.0953C39.472 15.0953 39.5516 15.0157 39.5516 14.9176C39.5516 14.8194 39.472 14.7399 39.3739 14.7399ZM37.1962 14.9176C37.1962 13.7149 38.1712 12.7399 39.3739 12.7399C40.5766 12.7399 41.5516 13.7149 41.5516 14.9176C41.5516 16.1203 40.5766 17.0953 39.3739 17.0953C38.1712 17.0953 37.1962 16.1203 37.1962 14.9176ZM46.8328 20.8062H57.0396C57.9068 20.8062 58.6098 21.5093 58.6098 22.3765C58.6098 23.2438 57.9068 23.9468 57.0396 23.9468H46.8328C45.9655 23.9468 45.2625 23.2438 45.2625 22.3765C45.2625 21.5093 45.9655 20.8062 46.8328 20.8062ZM49.5807 5.49609H39.3739C38.5067 5.49609 37.8036 6.19913 37.8036 7.06637C37.8036 7.93361 38.5067 8.63665 39.3739 8.63665H49.5807C50.448 8.63665 51.151 7.93361 51.151 7.06637C51.151 6.19913 50.448 5.49609 49.5807 5.49609ZM39.3739 20.8062C40.2411 20.8062 40.9442 21.5093 40.9442 22.3765C40.9442 23.2438 40.2411 23.9468 39.3739 23.9468C38.5066 23.9468 37.8036 23.2438 37.8036 22.3765C37.8036 21.5093 38.5066 20.8062 39.3739 20.8062Z" fill="black"/>
<path d="M39.6558 107.208C39.2083 108.25 39.0434 110.553 41.6147 111.95C41.8032 112.053 42.0112 112.152 42.2311 112.245C45.4462 113.588 46.2471 111.379 46.2471 110.107V108.812" stroke="black" stroke-width="2" stroke-linecap="round"/>
<path d="M40.072 104.002C39.2084 104.523 38.0267 105.846 39.6559 107.208C39.7776 107.309 39.915 107.411 40.072 107.513C41.9524 108.752 44.6258 108.914 46.2471 108.812C46.5455 108.793 46.8046 108.765 47.0205 108.734C47.8959 108.489 49.3052 107.539 47.9469 105.696" stroke="black" stroke-width="2" stroke-linecap="round"/>
<path d="M40.6882 100.187C39.8127 100.39 38.3092 101.194 39.2985 102.781C40.2878 104.369 45.2695 105.376 47.6367 105.681C47.7387 105.692 47.8408 105.697 47.9468 105.696C48.8811 105.693 49.7997 105.24 49.7997 104.002C49.7997 102.254 47.5346 101.662 47.0203 101.56" stroke="black" stroke-width="2" stroke-linecap="round"/>
<path d="M45.8662 94.9973C44.9907 95.3533 44.4568 96.6453 46.5571 97.7441C48.6573 98.8429 48.1509 100.339 47.6367 100.949C46.8123 101.662 44.1467 102.201 40.0718 98.6599C35.993 95.1189 42.388 92.9107 46.247 92.2493" stroke="black" stroke-width="2" stroke-linecap="round"/>
<path d="M54.8955 98.6599C53.1446 97.2863 49.7371 95.3631 50.1061 98.6599C50.4791 101.957 52.8345 103.392 53.969 103.697" stroke="black" stroke-width="2" stroke-linecap="round"/>
<path d="M54.8955 111.878C53.8709 110.996 52.1239 108.113 53.3566 103.634" stroke="black" stroke-width="2" stroke-linecap="round"/>
<path d="M54.1456 97.5889L56.0732 87.1458" stroke="black" stroke-width="2" stroke-linecap="round"/>
<path d="M47.2404 85.3796L45.9252 96.0548" stroke="black" stroke-width="2" stroke-linecap="round"/>
<path d="M44.2175 112.625C44.2175 115.541 42.8199 119.376 45.9252 120.297C49.7135 121.421 50.1139 117.995 50.8872 114.466L52.9051 103.88" stroke="black" stroke-width="2" stroke-linecap="round"/>
<path d="M55.2882 93.6233C57.4473 94.0159 62.5115 96.2143 65.495 101.867C68.4785 107.52 71.3168 109.326 72.365 109.522" stroke="black" stroke-width="2" stroke-linecap="round"/>
<path d="M71.7761 119.337C66.2801 119.925 54.9348 119.69 51.1662 115.607" stroke="black" stroke-width="2" stroke-linecap="round"/>
<path d="M55.0919 86.9499C44.685 86.9499 36.2485 78.5134 36.2485 68.1065C36.2485 57.6996 44.685 49.2632 55.0919 49.2632C65.4988 49.2632 73.9352 57.6996 73.9352 68.1065C73.9352 78.5134 65.4988 86.9499 55.0919 86.9499Z" stroke="black" stroke-width="2"/>
<path d="M202.215 143.247C205.028 139.976 208.967 133.08 202.215 131.667C193.775 129.9 174.735 130.293 173.95 135.003" stroke="black" stroke-width="2" stroke-linecap="round"/>
<path d="M292.628 246.513C291.101 247.339 286.498 247.653 280.301 242.307C274.103 236.962 272.747 232.196 272.844 230.482" stroke="black" stroke-width="2" stroke-linecap="round"/>
<path d="M300.298 246.383C300.471 247.858 299.491 250.12 294.185 247.367L292.629 246.513L289.921 245.029" stroke="black" stroke-width="2" stroke-linecap="round"/>
<path d="M301.679 241.813C302.926 242.545 304.935 244.436 302.995 246.143C302.409 246.658 301.442 246.672 300.298 246.383C297.651 245.714 294.06 243.42 292.085 241.946" stroke="black" stroke-width="2" stroke-linecap="round"/>
<path d="M278.546 223.246C281.472 222.171 287.516 220.074 291.534 221.47C292.542 221.848 294.827 222.37 295.902 221.427C297.246 220.25 299.793 223.27 296.33 225.291C292.866 227.312 290.609 225.17 291.068 228.378C291.435 230.945 298.543 235.11 302.051 236.871C303.311 237.442 305.393 239.097 303.638 241.151C303.204 241.66 302.513 241.847 301.679 241.813C299.143 241.709 295.276 239.559 293.211 238.166" stroke="black" stroke-width="2" stroke-linecap="round"/>
<path d="M338.429 317.242C348.776 327.832 367.997 332.498 378.129 333.772C378.845 333.862 379.097 334.793 378.516 335.222L351.859 354.885C351.772 354.949 351.672 354.995 351.566 355.018C331.829 359.423 313.427 339.775 306.125 328.612C305.847 328.187 306.054 327.623 306.536 327.461L337.607 317.041C337.897 316.944 338.215 317.023 338.429 317.242Z" stroke="black" stroke-width="2" stroke-linecap="round"/>
<path d="M323.165 333.37C326.305 332.717 333.136 330.686 335.334 327.779" stroke="black" stroke-width="2" stroke-linecap="round"/>
<path d="M331.998 340.436C333.961 340.501 338.475 339.533 340.831 335.136" stroke="black" stroke-width="2" stroke-linecap="round"/>
<path d="M341.616 345.147C344.56 344.755 350.881 342.517 352.608 336.707" stroke="black" stroke-width="2" stroke-linecap="round"/>
<rect x="29.3774" y="37.0229" width="51.3141" height="41.2276" rx="4" stroke="black" stroke-width="2"/>
<circle cx="55.0345" cy="72.7666" r="2.16138" fill="black"/>
<path d="M4.99994 49.5852H13.7647" stroke="black" stroke-linecap="round"/>
<path d="M4.99994 52.467H13.7647" stroke="black" stroke-linecap="round"/>
<path d="M4.99994 55.3489H10.7636" stroke="black" stroke-linecap="round"/>
<path d="M363.507 299.704C360.478 299.917 361.039 303.058 357.942 303.364L362.641 306.821C363.606 307.071 363.376 305.823 363.349 305.188L363.507 299.704Z" fill="black"/>
<path d="M363.527 294.406L363.482 297.624C363.425 301.691 358.795 303.991 355.519 301.581L352.259 299.183" stroke="black" stroke-linecap="round"/>
<path d="M352.927 293.787L345.178 278.752" stroke="black" stroke-linecap="round"/>
<path d="M347.694 275.721L356.69 292.965" stroke="black" stroke-linecap="round"/>
<path d="M352.134 275.541L359.765 290.346" stroke="black" stroke-linecap="round"/>
<path d="M342.346 280.258L350.91 296.696C351.308 297.458 352.517 297.415 353.158 296.841C353.677 296.376 354.332 296.056 355.108 296.111C355.892 296.167 356.832 295.714 357.195 295.018C357.527 294.381 358.08 293.946 358.948 294.168C359.603 294.335 360.442 294.062 360.643 293.416V293.416C360.89 292.621 362.328 290.742 361.944 290.003L353.53 273.84" stroke="black" stroke-linecap="round"/>
<path d="M339.988 265.313C337.163 268.059 337.259 270.389 337.659 271.21L339.278 274.451C339.619 275.134 340.586 275.209 341.087 274.633C343.099 272.322 346.626 269.477 350.29 269.52C350.896 269.527 351.396 268.873 351.12 268.333L348.855 264.011C348.737 263.786 348.538 263.611 348.293 263.542C346.403 263.014 342.623 262.751 339.988 265.313Z" fill="black" stroke="black" stroke-linecap="round"/>
<path d="M351.851 269.877L352.432 271.085C352.841 271.937 351.821 273.169 350.878 273.235C348.67 273.387 345.691 274.521 342.746 277.887C342.265 278.437 341.364 278.367 341.02 277.722L340.251 276.275" stroke="black" stroke-linecap="round"/>
<path d="M341.873 276.608C342.623 275.197 345.367 272.171 350.338 271.348" stroke="black" stroke-linecap="round"/>
</svg>
