<svg width="229" height="61" viewBox="0 0 229 61" fill="none" xmlns="http://www.w3.org/2000/svg">
<g clip-path="url(#clip0_481_8)">
<mask id="path-1-outside-1_481_8" maskUnits="userSpaceOnUse" x="0" y="3" width="222" height="55" fill="black">
<rect fill="white" y="3" width="222" height="55"/>
<path d="M11.52 44.192V35.84H17.28C18.784 35.84 20.128 35.632 21.312 35.216C22.528 34.768 23.552 34.144 24.384 33.344C25.216 32.512 25.856 31.52 26.304 30.368C26.752 29.184 26.976 27.856 26.976 26.384C26.976 24.848 26.752 23.504 26.304 22.352C25.856 21.168 25.216 20.192 24.384 19.424C23.552 18.624 22.528 18.032 21.312 17.648C20.128 17.232 18.784 17.024 17.28 17.024H11.52V8.672H16.896C20.064 8.672 22.832 9.12 25.2 10.016C27.6 10.912 29.6 12.16 31.2 13.76C32.8 15.328 34 17.152 34.8 19.232C35.6 21.312 36 23.52 36 25.856V26.912C36 29.056 35.6 31.168 34.8 33.248C34 35.296 32.8 37.152 31.2 38.816C29.6 40.448 27.6 41.76 25.2 42.752C22.832 43.712 20.064 44.192 16.896 44.192H11.52ZM3.552 44.192V8.672H12.48V44.192H3.552ZM51.9994 44.96C49.7594 44.96 47.7754 44.576 46.0474 43.808C44.3194 43.04 42.8634 42 41.6794 40.688C40.4954 39.376 39.5834 37.904 38.9434 36.272C38.3354 34.64 38.0314 32.96 38.0314 31.232V30.272C38.0314 28.48 38.3354 26.768 38.9434 25.136C39.5834 23.472 40.4794 22 41.6314 20.72C42.8154 19.44 44.2554 18.432 45.9514 17.696C47.6474 16.928 49.5674 16.544 51.7114 16.544C54.5594 16.544 56.9754 17.184 58.9594 18.464C60.9434 19.744 62.4634 21.44 63.5194 23.552C64.5754 25.632 65.1034 27.904 65.1034 30.368V33.152H41.6794V28.448H60.0634L57.0394 30.56C57.0394 29.056 56.8314 27.792 56.4154 26.768C56.0314 25.712 55.4394 24.912 54.6394 24.368C53.8714 23.824 52.8954 23.552 51.7114 23.552C50.5594 23.552 49.5514 23.824 48.6874 24.368C47.8554 24.88 47.2154 25.68 46.7674 26.768C46.3194 27.824 46.0954 29.168 46.0954 30.8C46.0954 32.272 46.3034 33.552 46.7194 34.64C47.1354 35.696 47.7754 36.512 48.6394 37.088C49.5034 37.664 50.6234 37.952 51.9994 37.952C53.2154 37.952 54.2074 37.744 54.9754 37.328C55.7754 36.912 56.3354 36.352 56.6554 35.648H64.6234C64.2394 37.44 63.4714 39.04 62.3194 40.448C61.1994 41.856 59.7594 42.96 57.9994 43.76C56.2714 44.56 54.2714 44.96 51.9994 44.96ZM79.26 44.864C75.42 44.864 72.396 44.08 70.188 42.512C67.98 40.912 66.796 38.672 66.636 35.792H74.316C74.444 36.592 74.94 37.28 75.804 37.856C76.668 38.432 77.884 38.72 79.452 38.72C80.572 38.72 81.532 38.56 82.332 38.24C83.164 37.888 83.58 37.328 83.58 36.56C83.58 35.888 83.26 35.344 82.62 34.928C81.98 34.48 80.812 34.176 79.116 34.016L77.292 33.824C73.9 33.472 71.404 32.544 69.804 31.04C68.204 29.536 67.404 27.648 67.404 25.376C67.404 23.424 67.884 21.824 68.844 20.576C69.804 19.296 71.132 18.336 72.828 17.696C74.524 17.056 76.46 16.736 78.636 16.736C82.188 16.736 85.052 17.52 87.228 19.088C89.404 20.624 90.556 22.848 90.684 25.76H83.004C82.876 24.96 82.444 24.288 81.708 23.744C80.972 23.168 79.916 22.88 78.54 22.88C77.548 22.88 76.732 23.056 76.092 23.408C75.484 23.76 75.18 24.256 75.18 24.896C75.18 25.568 75.468 26.064 76.044 26.384C76.652 26.704 77.612 26.944 78.924 27.104L80.748 27.296C84.14 27.648 86.748 28.592 88.572 30.128C90.428 31.632 91.356 33.616 91.356 36.08C91.356 37.904 90.86 39.472 89.868 40.784C88.908 42.096 87.516 43.104 85.692 43.808C83.9 44.512 81.756 44.864 79.26 44.864ZM95.9891 44V17.504H104.725V44H95.9891ZM92.6291 23.84V17.504H104.725V23.84H92.6291ZM99.5891 15.392C97.9891 15.392 96.8051 14.992 96.0371 14.192C95.3011 13.36 94.9331 12.304 94.9331 11.024C94.9331 9.744 95.3011 8.704 96.0371 7.904C96.8051 7.072 97.9731 6.656 99.5411 6.656C101.141 6.656 102.309 7.072 103.045 7.904C103.781 8.704 104.149 9.744 104.149 11.024C104.149 12.304 103.781 13.36 103.045 14.192C102.309 14.992 101.157 15.392 99.5891 15.392ZM120.795 54.608C119.483 54.608 118.123 54.56 116.715 54.464C115.339 54.368 114.091 54.24 112.971 54.08V46.784C114.091 46.912 115.339 47.024 116.715 47.12C118.091 47.248 119.355 47.312 120.507 47.312C122.491 47.312 124.107 47.104 125.355 46.688C126.635 46.272 127.579 45.632 128.187 44.768C128.795 43.904 129.099 42.8 129.099 41.456V36.08L130.443 33.2C130.379 35.44 129.947 37.392 129.147 39.056C128.347 40.688 127.195 41.952 125.691 42.848C124.219 43.744 122.427 44.192 120.315 44.192C118.523 44.192 116.907 43.872 115.467 43.232C114.027 42.592 112.795 41.696 111.771 40.544C110.779 39.36 110.011 37.968 109.467 36.368C108.923 34.768 108.651 33.024 108.651 31.136V29.984C108.651 28.096 108.939 26.352 109.515 24.752C110.091 23.12 110.923 21.712 112.011 20.528C113.099 19.312 114.379 18.384 115.851 17.744C117.355 17.072 119.019 16.736 120.843 16.736C122.955 16.736 124.779 17.216 126.315 18.176C127.851 19.104 129.051 20.464 129.915 22.256C130.779 24.048 131.243 26.224 131.307 28.784L130.347 29.12V17.504H137.259V40.88C137.259 44.144 136.651 46.784 135.435 48.8C134.219 50.816 132.379 52.288 129.915 53.216C127.483 54.144 124.443 54.608 120.795 54.608ZM123.243 36.992C124.299 36.992 125.243 36.752 126.075 36.272C126.939 35.792 127.627 35.104 128.139 34.208C128.651 33.28 128.907 32.176 128.907 30.896V29.744C128.907 28.496 128.635 27.44 128.091 26.576C127.579 25.712 126.891 25.056 126.027 24.608C125.163 24.16 124.235 23.936 123.243 23.936C122.091 23.936 121.067 24.208 120.171 24.752C119.307 25.296 118.619 26.064 118.107 27.056C117.627 28.048 117.387 29.216 117.387 30.56C117.387 31.904 117.627 33.056 118.107 34.016C118.619 34.976 119.307 35.712 120.171 36.224C121.067 36.736 122.091 36.992 123.243 36.992ZM142.368 44V17.504H149.28V28.88H148.896C148.896 26.128 149.248 23.856 149.952 22.064C150.656 20.24 151.696 18.88 153.072 17.984C154.48 17.088 156.176 16.64 158.16 16.64H158.544C161.552 16.64 163.872 17.648 165.504 19.664C167.168 21.648 168 24.704 168 28.832V44H159.264V28.592C159.264 27.376 158.896 26.384 158.16 25.616C157.456 24.816 156.48 24.416 155.232 24.416C153.984 24.416 152.976 24.816 152.208 25.616C151.472 26.384 151.104 27.408 151.104 28.688V44H142.368ZM185.34 44.96C183.1 44.96 181.116 44.576 179.388 43.808C177.66 43.04 176.204 42 175.02 40.688C173.836 39.376 172.924 37.904 172.284 36.272C171.676 34.64 171.372 32.96 171.372 31.232V30.272C171.372 28.48 171.676 26.768 172.284 25.136C172.924 23.472 173.82 22 174.972 20.72C176.156 19.44 177.596 18.432 179.292 17.696C180.988 16.928 182.908 16.544 185.052 16.544C187.9 16.544 190.316 17.184 192.3 18.464C194.284 19.744 195.804 21.44 196.86 23.552C197.916 25.632 198.444 27.904 198.444 30.368V33.152H175.02V28.448H193.404L190.38 30.56C190.38 29.056 190.172 27.792 189.756 26.768C189.372 25.712 188.78 24.912 187.98 24.368C187.212 23.824 186.236 23.552 185.052 23.552C183.9 23.552 182.892 23.824 182.028 24.368C181.196 24.88 180.556 25.68 180.108 26.768C179.66 27.824 179.436 29.168 179.436 30.8C179.436 32.272 179.644 33.552 180.06 34.64C180.476 35.696 181.116 36.512 181.98 37.088C182.844 37.664 183.964 37.952 185.34 37.952C186.556 37.952 187.548 37.744 188.316 37.328C189.116 36.912 189.676 36.352 189.996 35.648H197.964C197.58 37.44 196.812 39.04 195.66 40.448C194.54 41.856 193.1 42.96 191.34 43.76C189.612 44.56 187.612 44.96 185.34 44.96ZM202.089 44V17.504H209.001V29.024H208.905C208.905 25.312 209.673 22.4 211.209 20.288C212.777 18.176 215.017 17.12 217.929 17.12H218.985V24.608H216.969C215.017 24.608 213.497 25.136 212.409 26.192C211.353 27.248 210.825 28.768 210.825 30.752V44H202.089Z"/>
</mask>
<path d="M11.52 44.192V35.84H17.28C18.784 35.84 20.128 35.632 21.312 35.216C22.528 34.768 23.552 34.144 24.384 33.344C25.216 32.512 25.856 31.52 26.304 30.368C26.752 29.184 26.976 27.856 26.976 26.384C26.976 24.848 26.752 23.504 26.304 22.352C25.856 21.168 25.216 20.192 24.384 19.424C23.552 18.624 22.528 18.032 21.312 17.648C20.128 17.232 18.784 17.024 17.28 17.024H11.52V8.672H16.896C20.064 8.672 22.832 9.12 25.2 10.016C27.6 10.912 29.6 12.16 31.2 13.76C32.8 15.328 34 17.152 34.8 19.232C35.6 21.312 36 23.52 36 25.856V26.912C36 29.056 35.6 31.168 34.8 33.248C34 35.296 32.8 37.152 31.2 38.816C29.6 40.448 27.6 41.76 25.2 42.752C22.832 43.712 20.064 44.192 16.896 44.192H11.52ZM3.552 44.192V8.672H12.48V44.192H3.552ZM51.9994 44.96C49.7594 44.96 47.7754 44.576 46.0474 43.808C44.3194 43.04 42.8634 42 41.6794 40.688C40.4954 39.376 39.5834 37.904 38.9434 36.272C38.3354 34.64 38.0314 32.96 38.0314 31.232V30.272C38.0314 28.48 38.3354 26.768 38.9434 25.136C39.5834 23.472 40.4794 22 41.6314 20.72C42.8154 19.44 44.2554 18.432 45.9514 17.696C47.6474 16.928 49.5674 16.544 51.7114 16.544C54.5594 16.544 56.9754 17.184 58.9594 18.464C60.9434 19.744 62.4634 21.44 63.5194 23.552C64.5754 25.632 65.1034 27.904 65.1034 30.368V33.152H41.6794V28.448H60.0634L57.0394 30.56C57.0394 29.056 56.8314 27.792 56.4154 26.768C56.0314 25.712 55.4394 24.912 54.6394 24.368C53.8714 23.824 52.8954 23.552 51.7114 23.552C50.5594 23.552 49.5514 23.824 48.6874 24.368C47.8554 24.88 47.2154 25.68 46.7674 26.768C46.3194 27.824 46.0954 29.168 46.0954 30.8C46.0954 32.272 46.3034 33.552 46.7194 34.64C47.1354 35.696 47.7754 36.512 48.6394 37.088C49.5034 37.664 50.6234 37.952 51.9994 37.952C53.2154 37.952 54.2074 37.744 54.9754 37.328C55.7754 36.912 56.3354 36.352 56.6554 35.648H64.6234C64.2394 37.44 63.4714 39.04 62.3194 40.448C61.1994 41.856 59.7594 42.96 57.9994 43.76C56.2714 44.56 54.2714 44.96 51.9994 44.96ZM79.26 44.864C75.42 44.864 72.396 44.08 70.188 42.512C67.98 40.912 66.796 38.672 66.636 35.792H74.316C74.444 36.592 74.94 37.28 75.804 37.856C76.668 38.432 77.884 38.72 79.452 38.72C80.572 38.72 81.532 38.56 82.332 38.24C83.164 37.888 83.58 37.328 83.58 36.56C83.58 35.888 83.26 35.344 82.62 34.928C81.98 34.48 80.812 34.176 79.116 34.016L77.292 33.824C73.9 33.472 71.404 32.544 69.804 31.04C68.204 29.536 67.404 27.648 67.404 25.376C67.404 23.424 67.884 21.824 68.844 20.576C69.804 19.296 71.132 18.336 72.828 17.696C74.524 17.056 76.46 16.736 78.636 16.736C82.188 16.736 85.052 17.52 87.228 19.088C89.404 20.624 90.556 22.848 90.684 25.76H83.004C82.876 24.96 82.444 24.288 81.708 23.744C80.972 23.168 79.916 22.88 78.54 22.88C77.548 22.88 76.732 23.056 76.092 23.408C75.484 23.76 75.18 24.256 75.18 24.896C75.18 25.568 75.468 26.064 76.044 26.384C76.652 26.704 77.612 26.944 78.924 27.104L80.748 27.296C84.14 27.648 86.748 28.592 88.572 30.128C90.428 31.632 91.356 33.616 91.356 36.08C91.356 37.904 90.86 39.472 89.868 40.784C88.908 42.096 87.516 43.104 85.692 43.808C83.9 44.512 81.756 44.864 79.26 44.864ZM95.9891 44V17.504H104.725V44H95.9891ZM92.6291 23.84V17.504H104.725V23.84H92.6291ZM99.5891 15.392C97.9891 15.392 96.8051 14.992 96.0371 14.192C95.3011 13.36 94.9331 12.304 94.9331 11.024C94.9331 9.744 95.3011 8.704 96.0371 7.904C96.8051 7.072 97.9731 6.656 99.5411 6.656C101.141 6.656 102.309 7.072 103.045 7.904C103.781 8.704 104.149 9.744 104.149 11.024C104.149 12.304 103.781 13.36 103.045 14.192C102.309 14.992 101.157 15.392 99.5891 15.392ZM120.795 54.608C119.483 54.608 118.123 54.56 116.715 54.464C115.339 54.368 114.091 54.24 112.971 54.08V46.784C114.091 46.912 115.339 47.024 116.715 47.12C118.091 47.248 119.355 47.312 120.507 47.312C122.491 47.312 124.107 47.104 125.355 46.688C126.635 46.272 127.579 45.632 128.187 44.768C128.795 43.904 129.099 42.8 129.099 41.456V36.08L130.443 33.2C130.379 35.44 129.947 37.392 129.147 39.056C128.347 40.688 127.195 41.952 125.691 42.848C124.219 43.744 122.427 44.192 120.315 44.192C118.523 44.192 116.907 43.872 115.467 43.232C114.027 42.592 112.795 41.696 111.771 40.544C110.779 39.36 110.011 37.968 109.467 36.368C108.923 34.768 108.651 33.024 108.651 31.136V29.984C108.651 28.096 108.939 26.352 109.515 24.752C110.091 23.12 110.923 21.712 112.011 20.528C113.099 19.312 114.379 18.384 115.851 17.744C117.355 17.072 119.019 16.736 120.843 16.736C122.955 16.736 124.779 17.216 126.315 18.176C127.851 19.104 129.051 20.464 129.915 22.256C130.779 24.048 131.243 26.224 131.307 28.784L130.347 29.12V17.504H137.259V40.88C137.259 44.144 136.651 46.784 135.435 48.8C134.219 50.816 132.379 52.288 129.915 53.216C127.483 54.144 124.443 54.608 120.795 54.608ZM123.243 36.992C124.299 36.992 125.243 36.752 126.075 36.272C126.939 35.792 127.627 35.104 128.139 34.208C128.651 33.28 128.907 32.176 128.907 30.896V29.744C128.907 28.496 128.635 27.44 128.091 26.576C127.579 25.712 126.891 25.056 126.027 24.608C125.163 24.16 124.235 23.936 123.243 23.936C122.091 23.936 121.067 24.208 120.171 24.752C119.307 25.296 118.619 26.064 118.107 27.056C117.627 28.048 117.387 29.216 117.387 30.56C117.387 31.904 117.627 33.056 118.107 34.016C118.619 34.976 119.307 35.712 120.171 36.224C121.067 36.736 122.091 36.992 123.243 36.992ZM142.368 44V17.504H149.28V28.88H148.896C148.896 26.128 149.248 23.856 149.952 22.064C150.656 20.24 151.696 18.88 153.072 17.984C154.48 17.088 156.176 16.64 158.16 16.64H158.544C161.552 16.64 163.872 17.648 165.504 19.664C167.168 21.648 168 24.704 168 28.832V44H159.264V28.592C159.264 27.376 158.896 26.384 158.16 25.616C157.456 24.816 156.48 24.416 155.232 24.416C153.984 24.416 152.976 24.816 152.208 25.616C151.472 26.384 151.104 27.408 151.104 28.688V44H142.368ZM185.34 44.96C183.1 44.96 181.116 44.576 179.388 43.808C177.66 43.04 176.204 42 175.02 40.688C173.836 39.376 172.924 37.904 172.284 36.272C171.676 34.64 171.372 32.96 171.372 31.232V30.272C171.372 28.48 171.676 26.768 172.284 25.136C172.924 23.472 173.82 22 174.972 20.72C176.156 19.44 177.596 18.432 179.292 17.696C180.988 16.928 182.908 16.544 185.052 16.544C187.9 16.544 190.316 17.184 192.3 18.464C194.284 19.744 195.804 21.44 196.86 23.552C197.916 25.632 198.444 27.904 198.444 30.368V33.152H175.02V28.448H193.404L190.38 30.56C190.38 29.056 190.172 27.792 189.756 26.768C189.372 25.712 188.78 24.912 187.98 24.368C187.212 23.824 186.236 23.552 185.052 23.552C183.9 23.552 182.892 23.824 182.028 24.368C181.196 24.88 180.556 25.68 180.108 26.768C179.66 27.824 179.436 29.168 179.436 30.8C179.436 32.272 179.644 33.552 180.06 34.64C180.476 35.696 181.116 36.512 181.98 37.088C182.844 37.664 183.964 37.952 185.34 37.952C186.556 37.952 187.548 37.744 188.316 37.328C189.116 36.912 189.676 36.352 189.996 35.648H197.964C197.58 37.44 196.812 39.04 195.66 40.448C194.54 41.856 193.1 42.96 191.34 43.76C189.612 44.56 187.612 44.96 185.34 44.96ZM202.089 44V17.504H209.001V29.024H208.905C208.905 25.312 209.673 22.4 211.209 20.288C212.777 18.176 215.017 17.12 217.929 17.12H218.985V24.608H216.969C215.017 24.608 213.497 25.136 212.409 26.192C211.353 27.248 210.825 28.768 210.825 30.752V44H202.089Z" fill="#FFA6D3"/>
<path d="M11.52 44.192H8.52V47.192H11.52V44.192ZM11.52 35.84V32.84H8.52V35.84H11.52ZM21.312 35.216L22.3065 38.0464L22.3278 38.0389L22.3491 38.031L21.312 35.216ZM24.384 33.344L26.4633 35.5065L26.4845 35.4861L26.5053 35.4653L24.384 33.344ZM26.304 30.368L29.1 31.4553L29.105 31.4425L29.1099 31.4297L26.304 30.368ZM26.304 22.352L23.4981 23.4137L23.503 23.4265L23.508 23.4393L26.304 22.352ZM24.384 19.424L22.3047 21.5865L22.3267 21.6077L22.3492 21.6284L24.384 19.424ZM21.312 17.648L20.3175 20.4784L20.3628 20.4943L20.4086 20.5087L21.312 17.648ZM11.52 17.024H8.52V20.024H11.52V17.024ZM11.52 8.672V5.672H8.52V8.672H11.52ZM25.2 10.016L24.1383 12.8219L24.1507 12.8265L25.2 10.016ZM31.2 13.76L29.0787 15.8813L29.0894 15.892L29.1002 15.9026L31.2 13.76ZM34.8 19.232L32 20.3089L32 20.3089L34.8 19.232ZM34.8 33.248L37.5944 34.3396L37.5972 34.3323L37.6 34.3249L34.8 33.248ZM31.2 38.816L33.3422 40.9162L33.3524 40.9058L33.3625 40.8953L31.2 38.816ZM25.2 42.752L26.3271 45.5322L26.3366 45.5284L26.346 45.5245L25.2 42.752ZM3.552 44.192H0.552V47.192H3.552V44.192ZM3.552 8.672V5.672H0.552V8.672H3.552ZM12.48 8.672H15.48V5.672H12.48V8.672ZM12.48 44.192V47.192H15.48V44.192H12.48ZM14.52 44.192V35.84H8.52V44.192H14.52ZM11.52 38.84H17.28V32.84H11.52V38.84ZM17.28 38.84C19.0574 38.84 20.7466 38.5944 22.3065 38.0464L20.3175 32.3856C19.5094 32.6696 18.5106 32.84 17.28 32.84V38.84ZM22.3491 38.031C23.9061 37.4574 25.2981 36.6269 26.4633 35.5065L22.3047 31.1815C21.8059 31.6611 21.1499 32.0786 20.2749 32.401L22.3491 38.031ZM26.5053 35.4653C27.6463 34.3244 28.509 32.9751 29.1 31.4553L23.508 29.2807C23.203 30.0649 22.7857 30.6996 22.2627 31.2227L26.5053 35.4653ZM29.1099 31.4297C29.7053 29.8561 29.976 28.1606 29.976 26.384H23.976C23.976 27.5513 23.7987 28.5119 23.4981 29.3063L29.1099 31.4297ZM29.976 26.384C29.976 24.5631 29.7111 22.8361 29.1 21.2647L23.508 23.4393C23.7929 24.1719 23.976 25.1329 23.976 26.384H29.976ZM29.1099 21.2903C28.5167 19.7227 27.6317 18.3391 26.4188 17.2196L22.3492 21.6284C22.8003 22.0449 23.1953 22.6133 23.4981 23.4137L29.1099 21.2903ZM26.4633 17.2615C25.2647 16.109 23.8251 15.2956 22.2154 14.7873L20.4086 20.5087C21.2309 20.7684 21.8393 21.139 22.3047 21.5865L26.4633 17.2615ZM22.3065 14.8176C20.7466 14.2696 19.0574 14.024 17.28 14.024V20.024C18.5106 20.024 19.5094 20.1944 20.3175 20.4784L22.3065 14.8176ZM17.28 14.024H11.52V20.024H17.28V14.024ZM14.52 17.024V8.672H8.52V17.024H14.52ZM11.52 11.672H16.896V5.672H11.52V11.672ZM16.896 11.672C19.7889 11.672 22.1828 12.0819 24.1383 12.8219L26.2617 7.21014C23.4812 6.15805 20.3391 5.672 16.896 5.672V11.672ZM24.1507 12.8265C26.2014 13.5921 27.8203 14.623 29.0787 15.8813L33.3213 11.6387C31.3797 9.69702 28.9986 8.23189 26.2493 7.20548L24.1507 12.8265ZM29.1002 15.9026C30.3948 17.1713 31.3551 18.6324 32 20.3089L37.6 18.1551C36.6449 15.6716 35.2052 13.4847 33.2998 11.6174L29.1002 15.9026ZM32 20.3089C32.6615 22.0289 33 23.8702 33 25.856H39C39 23.1698 38.5385 20.5951 37.6 18.1551L32 20.3089ZM33 25.856V26.912H39V25.856H33ZM33 26.912C33 28.6733 32.6731 30.421 32 32.1711L37.6 34.3249C38.5269 31.915 39 29.4387 39 26.912H33ZM32.0056 32.1564C31.3563 33.8186 30.3778 35.3427 29.0375 36.7367L33.3625 40.8953C35.2222 38.9613 36.6437 36.7734 37.5944 34.3396L32.0056 32.1564ZM29.0578 36.7158C27.7772 38.022 26.1308 39.1211 24.054 39.9795L26.346 45.5245C29.0692 44.3989 31.4228 42.874 33.3422 40.9162L29.0578 36.7158ZM24.0729 39.9718C22.1376 40.7564 19.7673 41.192 16.896 41.192V47.192C20.3607 47.192 23.5265 46.6676 26.3271 45.5322L24.0729 39.9718ZM16.896 41.192H11.52V47.192H16.896V41.192ZM6.552 44.192V8.672H0.552V44.192H6.552ZM3.552 11.672H12.48V5.672H3.552V11.672ZM9.48 8.672V44.192H15.48V8.672H9.48ZM12.48 41.192H3.552V47.192H12.48V41.192ZM46.0474 43.808L44.829 46.5494L44.829 46.5494L46.0474 43.808ZM41.6794 40.688L43.9066 38.6781L43.9066 38.6781L41.6794 40.688ZM38.9434 36.272L36.1321 37.3193L36.1411 37.3434L36.1505 37.3673L38.9434 36.272ZM38.9434 25.136L36.1433 24.0591L36.1377 24.0738L36.1321 24.0887L38.9434 25.136ZM41.6314 20.72L39.4291 18.6829L39.4152 18.6979L39.4015 18.7131L41.6314 20.72ZM45.9514 17.696L47.1457 20.448L47.1674 20.4386L47.1889 20.4289L45.9514 17.696ZM58.9594 18.464L57.333 20.9849L57.333 20.9849L58.9594 18.464ZM63.5194 23.552L60.8361 24.8936L60.8402 24.9019L60.8444 24.9101L63.5194 23.552ZM65.1034 33.152V36.152H68.1034V33.152H65.1034ZM41.6794 33.152H38.6794V36.152H41.6794V33.152ZM41.6794 28.448V25.448H38.6794V28.448H41.6794ZM60.0634 28.448L61.7811 30.9075L69.5982 25.448H60.0634V28.448ZM57.0394 30.56H54.0394V36.3145L58.7571 33.0195L57.0394 30.56ZM56.4154 26.768L53.596 27.7932L53.615 27.8455L53.636 27.8971L56.4154 26.768ZM54.6394 24.368L52.9053 26.8161L52.9287 26.8327L52.9524 26.8488L54.6394 24.368ZM48.6874 24.368L50.2597 26.923L50.2728 26.9149L50.2858 26.9067L48.6874 24.368ZM46.7674 26.768L49.5291 27.9396L49.5353 27.925L49.5414 27.9102L46.7674 26.768ZM46.7194 34.64L43.9172 35.7114L43.9226 35.7255L43.9282 35.7396L46.7194 34.64ZM48.6394 37.088L50.3035 34.5918L50.3035 34.5918L48.6394 37.088ZM54.9754 37.328L53.5913 34.6663L53.5688 34.678L53.5465 34.6901L54.9754 37.328ZM56.6554 35.648V32.648H54.7236L53.9243 34.4066L56.6554 35.648ZM64.6234 35.648L67.5568 36.2766L68.3343 32.648H64.6234V35.648ZM62.3194 40.448L59.9975 38.5483L59.9844 38.5643L59.9716 38.5804L62.3194 40.448ZM57.9994 43.76L56.758 41.0289L56.7485 41.0332L56.739 41.0376L57.9994 43.76ZM51.9994 41.96C50.1027 41.96 48.5461 41.6356 47.2658 41.0666L44.829 46.5494C47.0047 47.5164 49.416 47.96 51.9994 47.96V41.96ZM47.2658 41.0666C45.8943 40.457 44.7899 39.6569 43.9066 38.6781L39.4522 42.6979C40.9369 44.3431 42.7445 45.623 44.829 46.5494L47.2658 41.0666ZM43.9066 38.6781C42.9627 37.6322 42.2433 36.4695 41.7363 35.1767L36.1505 37.3673C36.9235 39.3385 38.0281 41.1198 39.4522 42.6979L43.9066 38.6781ZM41.7546 35.2247C41.2704 33.9251 41.0314 32.5996 41.0314 31.232H35.0314C35.0314 33.3204 35.4003 35.3549 36.1321 37.3193L41.7546 35.2247ZM41.0314 31.232V30.272H35.0314V31.232H41.0314ZM41.0314 30.272C41.0314 28.827 41.2751 27.4705 41.7546 26.1833L36.1321 24.0887C35.3957 26.0655 35.0314 28.133 35.0314 30.272H41.0314ZM41.7434 26.2129C42.2565 24.8789 42.9632 23.7247 43.8613 22.7269L39.4015 18.7131C37.9956 20.2753 36.9102 22.0651 36.1433 24.0591L41.7434 26.2129ZM43.8337 22.7571C44.7181 21.801 45.8082 21.0284 47.1457 20.448L44.7571 14.944C42.7026 15.8356 40.9127 17.079 39.4291 18.6829L43.8337 22.7571ZM47.1889 20.4289C48.4414 19.8617 49.9298 19.544 51.7114 19.544V13.544C49.205 13.544 46.8534 13.9943 44.7139 14.9631L47.1889 20.4289ZM51.7114 19.544C54.1026 19.544 55.9257 20.077 57.333 20.9849L60.5858 15.9431C58.025 14.291 55.0161 13.544 51.7114 13.544V19.544ZM57.333 20.9849C58.8654 21.9735 60.0204 23.2622 60.8361 24.8936L66.2027 22.2104C64.9064 19.6178 63.0214 17.5145 60.5858 15.9431L57.333 20.9849ZM60.8444 24.9101C61.6747 26.5456 62.1034 28.3486 62.1034 30.368H68.1034C68.1034 27.4594 67.4761 24.7184 66.1944 22.1939L60.8444 24.9101ZM62.1034 30.368V33.152H68.1034V30.368H62.1034ZM65.1034 30.152H41.6794V36.152H65.1034V30.152ZM44.6794 33.152V28.448H38.6794V33.152H44.6794ZM41.6794 31.448H60.0634V25.448H41.6794V31.448ZM58.3456 25.9885L55.3216 28.1005L58.7571 33.0195L61.7811 30.9075L58.3456 25.9885ZM60.0394 30.56C60.0394 28.7998 59.7987 27.1256 59.1948 25.6389L53.636 27.8971C53.864 28.4584 54.0394 29.3122 54.0394 30.56H60.0394ZM59.2348 25.7428C58.6714 24.1936 57.728 22.8404 56.3263 21.8872L52.9524 26.8488C53.1508 26.9836 53.3913 27.2304 53.596 27.7932L59.2348 25.7428ZM56.3734 21.9199C54.9811 20.9337 53.3553 20.552 51.7114 20.552V26.552C52.4355 26.552 52.7617 26.7143 52.9053 26.8161L56.3734 21.9199ZM51.7114 20.552C50.0683 20.552 48.491 20.9465 47.0889 21.8293L50.2858 26.9067C50.6117 26.7015 51.0504 26.552 51.7114 26.552V20.552ZM47.1151 21.813C45.6404 22.7205 44.6322 24.0743 43.9933 25.6257L49.5414 27.9102C49.7986 27.2857 50.0703 27.0395 50.2597 26.923L47.1151 21.813ZM44.0056 25.5963C43.3488 27.1446 43.0954 28.9228 43.0954 30.8H49.0954C49.0954 29.4132 49.2899 28.5034 49.5291 27.9396L44.0056 25.5963ZM43.0954 30.8C43.0954 32.5456 43.341 34.2044 43.9172 35.7114L49.5215 33.5686C49.2657 32.8996 49.0954 31.9984 49.0954 30.8H43.0954ZM43.9282 35.7396C44.5467 37.3097 45.5544 38.6369 46.9753 39.5842L50.3035 34.5918C49.9964 34.3871 49.7241 34.0823 49.5106 33.5404L43.9282 35.7396ZM46.9753 39.5841C48.4689 40.5799 50.2202 40.952 51.9994 40.952V34.952C51.0265 34.952 50.5379 34.7481 50.3035 34.5918L46.9753 39.5841ZM51.9994 40.952C53.529 40.952 55.0592 40.6944 56.4042 39.9659L53.5465 34.6901C53.3556 34.7936 52.9017 34.952 51.9994 34.952V40.952ZM56.3594 39.9897C57.6515 39.3178 58.7444 38.3021 59.3865 36.8894L53.9243 34.4066C53.9167 34.4232 53.9059 34.4428 53.8741 34.4747C53.8384 34.5103 53.7564 34.5805 53.5913 34.6663L56.3594 39.9897ZM56.6554 38.648H64.6234V32.648H56.6554V38.648ZM61.69 35.0194C61.4051 36.3487 60.8452 37.5122 59.9975 38.5483L64.6412 42.3477C66.0975 40.5678 67.0736 38.5313 67.5568 36.2766L61.69 35.0194ZM59.9716 38.5804C59.1687 39.5898 58.119 40.4102 56.758 41.0289L59.2408 46.4911C61.3997 45.5098 63.2301 44.1222 64.6672 42.3156L59.9716 38.5804ZM56.739 41.0376C55.4749 41.6228 53.919 41.96 51.9994 41.96V47.96C54.6237 47.96 57.0678 47.4972 59.2597 46.4824L56.739 41.0376ZM70.188 42.512L68.4277 44.9412L68.4393 44.9497L68.451 44.958L70.188 42.512ZM66.636 35.792V32.792H63.4647L63.6406 35.9584L66.636 35.792ZM74.316 35.792L77.2783 35.318L76.8742 32.792H74.316V35.792ZM75.804 37.856L77.4681 35.3598L77.4681 35.3598L75.804 37.856ZM82.332 38.24L83.4462 41.0254L83.4737 41.0144L83.5009 41.0029L82.332 38.24ZM82.62 34.928L80.8996 37.3857L80.9418 37.4152L80.985 37.4433L82.62 34.928ZM79.116 34.016L78.8019 36.9995L78.8181 37.0012L78.8342 37.0027L79.116 34.016ZM77.292 33.824L77.6061 30.8405L77.6017 30.84L77.292 33.824ZM69.804 31.04L71.8587 28.8541L71.8587 28.8541L69.804 31.04ZM68.844 20.576L71.2219 22.4051L71.233 22.3906L71.244 22.376L68.844 20.576ZM72.828 17.696L71.7688 14.8892L71.7688 14.8892L72.828 17.696ZM87.228 19.088L85.4741 21.5219L85.486 21.5305L85.498 21.5389L87.228 19.088ZM90.684 25.76V28.76H93.8188L93.6811 25.6283L90.684 25.76ZM83.004 25.76L80.0417 26.234L80.4458 28.76H83.004V25.76ZM81.708 23.744L79.8591 26.1065L79.8916 26.132L79.9248 26.1565L81.708 23.744ZM76.092 23.408L74.6462 20.7794L74.6174 20.7952L74.5889 20.8117L76.092 23.408ZM76.044 26.384L74.5871 29.0065L74.6167 29.023L74.6468 29.0388L76.044 26.384ZM78.924 27.104L78.5608 30.0819L78.5854 30.0849L78.6099 30.0875L78.924 27.104ZM80.748 27.296L80.4339 30.2795L80.4383 30.28L80.748 27.296ZM88.572 30.128L86.6396 32.4227L86.6613 32.441L86.6833 32.4588L88.572 30.128ZM89.868 40.784L87.475 38.9747L87.4608 38.9935L87.4469 39.0125L89.868 40.784ZM85.692 43.808L84.6118 41.0092L84.6034 41.0125L84.595 41.0157L85.692 43.808ZM79.26 41.864C75.7914 41.864 73.4533 41.1514 71.925 40.066L68.451 44.958C71.3387 47.0086 75.0486 47.864 79.26 47.864V41.864ZM71.9483 40.0828C70.5189 39.0469 69.7446 37.6638 69.6314 35.6256L63.6406 35.9584C63.8474 39.6802 65.4411 42.7771 68.4277 44.9412L71.9483 40.0828ZM66.636 38.792H74.316V32.792H66.636V38.792ZM71.3537 36.266C71.6486 38.1094 72.7881 39.451 74.1399 40.3522L77.4681 35.3598C77.2701 35.2278 77.2143 35.1491 77.2175 35.1536C77.2199 35.1569 77.2331 35.1763 77.2476 35.2108C77.2623 35.2459 77.2728 35.2833 77.2783 35.318L71.3537 36.266ZM74.1399 40.3522C75.6886 41.3846 77.5744 41.72 79.452 41.72V35.72C78.1936 35.72 77.6474 35.4794 77.4681 35.3598L74.1399 40.3522ZM79.452 41.72C80.8447 41.72 82.2031 41.5227 83.4462 41.0254L81.2178 35.4546C80.8609 35.5973 80.2993 35.72 79.452 35.72V41.72ZM83.5009 41.0029C84.2673 40.6786 85.0684 40.1632 85.6762 39.345C86.3075 38.4952 86.58 37.5199 86.58 36.56H80.58C80.58 36.3681 80.6445 36.0568 80.8598 35.767C81.0516 35.5088 81.2287 35.4494 81.1631 35.4771L83.5009 41.0029ZM86.58 36.56C86.58 34.7205 85.6105 33.2938 84.255 32.4127L80.985 37.4433C80.9959 37.4504 80.8742 37.373 80.7542 37.1691C80.6253 36.95 80.58 36.7229 80.58 36.56H86.58ZM84.3404 32.4703C83.0052 31.5356 81.1345 31.1931 79.3978 31.0293L78.8342 37.0027C79.5818 37.0733 80.1286 37.1684 80.5084 37.2673C80.9145 37.373 80.9866 37.4466 80.8996 37.3857L84.3404 32.4703ZM79.4301 31.0325L77.6061 30.8405L76.9779 36.8075L78.8019 36.9995L79.4301 31.0325ZM77.6017 30.84C74.5237 30.5206 72.7801 29.7202 71.8587 28.8541L67.7493 33.2259C70.0279 35.3678 73.2763 36.4234 76.9823 36.808L77.6017 30.84ZM71.8587 28.8541C70.8851 27.9389 70.404 26.8525 70.404 25.376H64.404C64.404 28.4435 65.5229 31.1331 67.7493 33.2259L71.8587 28.8541ZM70.404 25.376C70.404 23.9237 70.754 23.0134 71.2219 22.4051L66.4661 18.7469C65.014 20.6346 64.404 22.9243 64.404 25.376H70.404ZM71.244 22.376C71.8179 21.6108 72.6518 20.969 73.8872 20.5028L71.7688 14.8892C69.6122 15.703 67.7901 16.9812 66.444 18.776L71.244 22.376ZM73.8872 20.5028C75.1843 20.0133 76.7512 19.736 78.636 19.736V13.736C76.1688 13.736 73.8637 14.0987 71.7688 14.8892L73.8872 20.5028ZM78.636 19.736C81.7608 19.736 83.9516 20.4248 85.4741 21.5219L88.9819 16.6541C86.1524 14.6152 82.6152 13.736 78.636 13.736V19.736ZM85.498 21.5389C86.8369 22.484 87.5952 23.8066 87.6869 25.8917L93.6811 25.6283C93.5168 21.8894 91.9711 18.764 88.9581 16.6371L85.498 21.5389ZM90.684 22.76H83.004V28.76H90.684V22.76ZM85.9663 25.286C85.6978 23.6075 84.7698 22.2766 83.4912 21.3315L79.9248 26.1565C80.0423 26.2433 80.0677 26.2896 80.0605 26.2783C80.0576 26.2739 80.0521 26.2639 80.0471 26.2507C80.0421 26.2376 80.0411 26.2306 80.0417 26.234L85.9663 25.286ZM83.5569 21.3815C82.095 20.2374 80.2816 19.88 78.54 19.88V25.88C79.5504 25.88 79.849 26.0986 79.8591 26.1065L83.5569 21.3815ZM78.54 19.88C77.2157 19.88 75.8595 20.112 74.6462 20.7794L77.5378 26.0366C77.6045 26 77.8803 25.88 78.54 25.88V19.88ZM74.5889 20.8117C73.1642 21.6365 72.18 23.0644 72.18 24.896H78.18C78.18 25.0721 78.1315 25.3414 77.9658 25.6117C77.8083 25.8687 77.6337 25.982 77.5951 26.0043L74.5889 20.8117ZM72.18 24.896C72.18 25.6695 72.3494 26.4996 72.8016 27.2784C73.2556 28.0602 73.8978 28.6236 74.5871 29.0065L77.5009 23.7615C77.6142 23.8244 77.8244 23.9798 77.9904 24.2656C78.1546 24.5484 78.18 24.7945 78.18 24.896H72.18ZM74.6468 29.0388C75.7525 29.6207 77.158 29.9109 78.5608 30.0819L79.2872 24.1261C78.066 23.9771 77.5515 23.7873 77.4412 23.7292L74.6468 29.0388ZM78.6099 30.0875L80.4339 30.2795L81.0621 24.3125L79.2381 24.1205L78.6099 30.0875ZM80.4383 30.28C83.4787 30.5955 85.4338 31.4073 86.6396 32.4227L90.5044 27.8333C88.0622 25.7767 84.8013 24.7005 81.0577 24.312L80.4383 30.28ZM86.6833 32.4588C87.8111 33.3728 88.356 34.4878 88.356 36.08H94.356C94.356 32.7442 93.0449 29.8912 90.4608 27.7972L86.6833 32.4588ZM88.356 36.08C88.356 37.3259 88.0302 38.2404 87.475 38.9747L92.261 42.5933C93.6898 40.7036 94.356 38.4821 94.356 36.08H88.356ZM87.4469 39.0125C86.8896 39.7741 86.0094 40.4698 84.6118 41.0092L86.7722 46.6068C89.0226 45.7382 90.9264 44.4179 92.2891 42.5555L87.4469 39.0125ZM84.595 41.0157C83.2391 41.5484 81.4865 41.864 79.26 41.864V47.864C82.0255 47.864 84.5609 47.4756 86.789 46.6003L84.595 41.0157ZM95.9891 44H92.9891V47H95.9891V44ZM95.9891 17.504V14.504H92.9891V17.504H95.9891ZM104.725 17.504H107.725V14.504H104.725V17.504ZM104.725 44V47H107.725V44H104.725ZM92.6291 23.84H89.6291V26.84H92.6291V23.84ZM92.6291 17.504V14.504H89.6291V17.504H92.6291ZM104.725 17.504H107.725V14.504H104.725V17.504ZM104.725 23.84V26.84H107.725V23.84H104.725ZM96.0371 14.192L93.7901 16.1797L93.8306 16.2255L93.873 16.2696L96.0371 14.192ZM96.0371 7.904L93.8327 5.86916L93.8293 5.87283L96.0371 7.904ZM103.045 7.904L100.798 9.89172L100.818 9.91364L100.837 9.93517L103.045 7.904ZM103.045 14.192L105.253 16.2232L105.273 16.2016L105.292 16.1797L103.045 14.192ZM98.9891 44V17.504H92.9891V44H98.9891ZM95.9891 20.504H104.725V14.504H95.9891V20.504ZM101.725 17.504V44H107.725V17.504H101.725ZM104.725 41H95.9891V47H104.725V41ZM95.6291 23.84V17.504H89.6291V23.84H95.6291ZM92.6291 20.504H104.725V14.504H92.6291V20.504ZM101.725 17.504V23.84H107.725V17.504H101.725ZM104.725 20.84H92.6291V26.84H104.725V20.84ZM99.5891 12.392C99.0287 12.392 98.6712 12.3207 98.4613 12.2498C98.2676 12.1844 98.2109 12.1244 98.2013 12.1144L93.873 16.2696C95.4176 17.8786 97.5375 18.392 99.5891 18.392V12.392ZM98.2841 12.2043C98.1066 12.0036 97.9331 11.6904 97.9331 11.024H91.9331C91.9331 12.9176 92.4957 14.7164 93.7901 16.1797L98.2841 12.2043ZM97.9331 11.024C97.9331 10.3545 98.107 10.0851 98.2449 9.93517L93.8293 5.87283C92.4953 7.32289 91.9331 9.13354 91.9331 11.024H97.9331ZM98.2415 9.93884C98.2497 9.92999 98.4779 9.656 99.5411 9.656V3.656C97.4684 3.656 95.3605 4.21401 93.8327 5.86916L98.2415 9.93884ZM99.5411 9.656C100.093 9.656 100.428 9.72912 100.611 9.7941C100.698 9.82519 100.746 9.85274 100.768 9.86705C100.788 9.88046 100.795 9.88842 100.798 9.89172L105.292 5.91628C103.772 4.1983 101.613 3.656 99.5411 3.656V9.656ZM100.837 9.93517C100.975 10.0851 101.149 10.3545 101.149 11.024H107.149C107.149 9.13354 106.587 7.32289 105.253 5.87283L100.837 9.93517ZM101.149 11.024C101.149 11.6904 100.976 12.0036 100.798 12.2043L105.292 16.1797C106.587 14.7164 107.149 12.9176 107.149 11.024H101.149ZM100.837 12.1608C100.835 12.1631 100.828 12.1712 100.806 12.1851C100.783 12.1999 100.733 12.2274 100.645 12.258C100.461 12.3218 100.129 12.392 99.5891 12.392V18.392C101.619 18.392 103.736 17.8723 105.253 16.2232L100.837 12.1608ZM116.715 54.464L116.507 57.4567L116.511 57.4571L116.715 54.464ZM112.971 54.08H109.971V56.6819L112.547 57.0498L112.971 54.08ZM112.971 46.784L113.312 43.8034L109.971 43.4216V46.784H112.971ZM116.715 47.12L116.993 44.1329L116.959 44.1297L116.924 44.1273L116.715 47.12ZM125.355 46.688L124.428 43.8349L124.417 43.8384L124.407 43.842L125.355 46.688ZM128.187 44.768L130.641 46.4945L128.187 44.768ZM129.099 36.08L126.381 34.8113L126.099 35.4145V36.08H129.099ZM130.443 33.2L133.442 33.2857L127.725 31.9313L130.443 33.2ZM129.147 39.056L131.841 40.3765L131.846 40.3662L131.851 40.3559L129.147 39.056ZM125.691 42.848L124.156 40.2707L124.144 40.278L124.132 40.2854L125.691 42.848ZM115.467 43.232L114.249 45.9734L115.467 43.232ZM111.771 40.544L109.472 42.4707L109.5 42.5043L109.529 42.5371L111.771 40.544ZM109.467 36.368L112.308 35.4023L112.308 35.4023L109.467 36.368ZM109.515 24.752L112.338 25.7682L112.341 25.7593L112.344 25.7505L109.515 24.752ZM112.011 20.528L114.22 22.5579L114.234 22.5432L114.247 22.5284L112.011 20.528ZM115.851 17.744L117.048 20.4952L117.061 20.4892L117.075 20.483L115.851 17.744ZM126.315 18.176L124.725 20.72L124.745 20.732L124.764 20.7437L126.315 18.176ZM129.915 22.256L132.618 20.9531L132.618 20.9531L129.915 22.256ZM131.307 28.784L132.298 31.6156L134.361 30.8937L134.306 28.709L131.307 28.784ZM130.347 29.12H127.347V33.3484L131.338 31.9516L130.347 29.12ZM130.347 17.504V14.504H127.347V17.504H130.347ZM137.259 17.504H140.259V14.504H137.259V17.504ZM135.435 48.8L132.867 47.2505L132.867 47.2505L135.435 48.8ZM129.915 53.216L128.858 50.4085L128.846 50.4131L129.915 53.216ZM126.075 36.272L124.618 33.6495L124.597 33.6613L124.576 33.6734L126.075 36.272ZM128.139 34.208L130.744 35.6964L130.755 35.6769L130.766 35.6572L128.139 34.208ZM128.091 26.576L125.511 28.1054L125.531 28.1402L125.553 28.1744L128.091 26.576ZM126.027 24.608L127.408 21.9447L127.408 21.9447L126.027 24.608ZM120.171 24.752L118.614 22.1876L118.594 22.2003L118.573 22.2133L120.171 24.752ZM118.107 27.056L115.442 25.6801L115.424 25.7145L115.407 25.7493L118.107 27.056ZM118.107 34.016L115.424 35.3576L115.442 35.3929L115.46 35.4278L118.107 34.016ZM120.171 36.224L118.642 38.8049L118.662 38.817L118.683 38.8287L120.171 36.224ZM120.795 51.608C119.556 51.608 118.265 51.5627 116.919 51.4709L116.511 57.4571C117.982 57.5573 119.41 57.608 120.795 57.608V51.608ZM116.924 51.4713C115.605 51.3793 114.431 51.258 113.396 51.1102L112.547 57.0498C113.752 57.222 115.073 57.3567 116.507 57.4567L116.924 51.4713ZM115.971 54.08V46.784H109.971V54.08H115.971ZM112.631 49.7646C113.803 49.8986 115.096 50.0143 116.507 50.1127L116.924 44.1273C115.583 44.0337 114.38 43.9254 113.312 43.8034L112.631 49.7646ZM116.438 50.1071C117.888 50.2421 119.247 50.312 120.507 50.312V44.312C119.464 44.312 118.294 44.2539 116.993 44.1329L116.438 50.1071ZM120.507 50.312C122.667 50.312 124.637 50.0899 126.304 49.534L124.407 43.842C123.578 44.1181 122.316 44.312 120.507 44.312V50.312ZM126.283 49.5411C128.009 48.9799 129.568 48.0192 130.641 46.4945L125.734 43.0415C125.591 43.2448 125.261 43.5641 124.428 43.8349L126.283 49.5411ZM130.641 46.4945C131.691 45.0028 132.099 43.2496 132.099 41.456H126.099C126.099 42.3504 125.9 42.8052 125.734 43.0415L130.641 46.4945ZM132.099 41.456V36.08H126.099V41.456H132.099ZM131.818 37.3487L133.162 34.4687L127.725 31.9313L126.381 34.8113L131.818 37.3487ZM127.445 33.1143C127.39 35.0214 127.026 36.5438 126.444 37.7561L131.851 40.3559C132.868 38.2402 133.369 35.8586 133.442 33.2857L127.445 33.1143ZM126.454 37.7355C125.899 38.8662 125.14 39.6842 124.156 40.2707L127.227 45.4253C129.25 44.2198 130.795 42.5098 131.841 40.3765L126.454 37.7355ZM124.132 40.2854C123.225 40.8371 122.001 41.192 120.315 41.192V47.192C122.854 47.192 125.214 46.6509 127.251 45.4106L124.132 40.2854ZM120.315 41.192C118.886 41.192 117.693 40.9382 116.686 40.4906L114.249 45.9734C116.122 46.8058 118.161 47.192 120.315 47.192V41.192ZM116.686 40.4906C115.627 40.0202 114.747 39.3761 114.014 38.5509L109.529 42.5371C110.844 44.0159 112.427 45.1638 114.249 45.9734L116.686 40.4906ZM114.071 38.6173C113.338 37.7431 112.744 36.6844 112.308 35.4023L106.627 37.3337C107.279 39.2516 108.22 40.9769 109.472 42.4707L114.071 38.6173ZM112.308 35.4023C111.881 34.1474 111.651 32.7337 111.651 31.136H105.651C105.651 33.3143 105.966 35.3886 106.627 37.3337L112.308 35.4023ZM111.651 31.136V29.984H105.651V31.136H111.651ZM111.651 29.984C111.651 28.4044 111.892 27.0083 112.338 25.7682L106.693 23.7358C105.987 25.6957 105.651 27.7876 105.651 29.984H111.651ZM112.344 25.7505C112.796 24.4711 113.427 23.4213 114.22 22.5579L109.802 18.4981C108.42 20.0027 107.387 21.7689 106.686 23.7535L112.344 25.7505ZM114.247 22.5284C115.052 21.6292 115.979 20.9599 117.048 20.4952L114.655 14.9928C112.78 15.8081 111.147 16.9948 109.776 18.5276L114.247 22.5284ZM117.075 20.483C118.155 20.0007 119.396 19.736 120.843 19.736V13.736C118.643 13.736 116.556 14.1433 114.628 15.005L117.075 20.483ZM120.843 19.736C122.488 19.736 123.741 20.1046 124.725 20.72L127.905 15.632C125.818 14.3274 123.423 13.736 120.843 13.736V19.736ZM124.764 20.7437C125.749 21.3385 126.573 22.2322 127.213 23.5589L132.618 20.9531C131.529 18.6958 129.954 16.8695 127.867 15.6083L124.764 20.7437ZM127.213 23.5589C127.847 24.8739 128.252 26.6072 128.308 28.859L134.306 28.709C134.235 25.8408 133.712 23.2221 132.618 20.9531L127.213 23.5589ZM130.316 25.9524L129.356 26.2884L131.338 31.9516L132.298 31.6156L130.316 25.9524ZM133.347 29.12V17.504H127.347V29.12H133.347ZM130.347 20.504H137.259V14.504H130.347V20.504ZM134.259 17.504V40.88H140.259V17.504H134.259ZM134.259 40.88C134.259 43.7999 133.712 45.8492 132.867 47.2505L138.004 50.3495C139.591 47.7188 140.259 44.4881 140.259 40.88H134.259ZM132.867 47.2505C132.04 48.621 130.77 49.6884 128.858 50.4085L130.973 56.0235C133.989 54.8876 136.399 53.011 138.004 50.3495L132.867 47.2505ZM128.846 50.4131C126.863 51.1699 124.214 51.608 120.795 51.608V57.608C124.673 57.608 128.104 57.1181 130.985 56.0189L128.846 50.4131ZM123.243 39.992C124.772 39.992 126.242 39.6392 127.575 38.8706L124.576 33.6734C124.244 33.8648 123.827 33.992 123.243 33.992V39.992ZM127.532 38.8945C128.897 38.1363 129.973 37.0462 130.744 35.6964L125.535 32.7196C125.282 33.1618 124.982 33.4476 124.618 33.6495L127.532 38.8945ZM130.766 35.6572C131.569 34.202 131.907 32.5781 131.907 30.896H125.907C125.907 31.7739 125.734 32.358 125.513 32.7588L130.766 35.6572ZM131.907 30.896V29.744H125.907V30.896H131.907ZM131.907 29.744C131.907 28.0565 131.536 26.4168 130.63 24.9776L125.553 28.1744C125.734 28.4632 125.907 28.9355 125.907 29.744H131.907ZM130.672 25.0466C129.884 23.7161 128.787 22.6596 127.408 21.9447L124.646 27.2713C124.996 27.4524 125.275 27.7079 125.511 28.1054L130.672 25.0466ZM127.408 21.9447C126.109 21.2711 124.706 20.936 123.243 20.936V26.936C123.764 26.936 124.218 27.0489 124.646 27.2713L127.408 21.9447ZM123.243 20.936C121.598 20.936 120.026 21.3309 118.614 22.1876L121.728 27.3164C122.109 27.0851 122.584 26.936 123.243 26.936V20.936ZM118.573 22.2133C117.214 23.0689 116.176 24.258 115.442 25.6801L120.773 28.4319C121.063 27.87 121.401 27.5231 121.77 27.2907L118.573 22.2133ZM115.407 25.7493C114.691 27.2283 114.387 28.8611 114.387 30.56H120.387C120.387 29.5709 120.563 28.8677 120.808 28.3627L115.407 25.7493ZM114.387 30.56C114.387 32.255 114.69 33.8894 115.424 35.3576L120.791 32.6744C120.565 32.2226 120.387 31.553 120.387 30.56H114.387ZM115.46 35.4278C116.208 36.8306 117.266 37.9896 118.642 38.8049L121.701 33.6431C121.349 33.4344 121.03 33.1214 120.754 32.6042L115.46 35.4278ZM118.683 38.8287C120.083 39.6289 121.631 39.992 123.243 39.992V33.992C122.551 33.992 122.052 33.8431 121.66 33.6193L118.683 38.8287ZM142.368 44H139.368V47H142.368V44ZM142.368 17.504V14.504H139.368V17.504H142.368ZM149.28 17.504H152.28V14.504H149.28V17.504ZM149.28 28.88V31.88H152.28V28.88H149.28ZM148.896 28.88H145.896V31.88H148.896V28.88ZM149.952 22.064L152.744 23.161L152.748 23.1526L152.751 23.1442L149.952 22.064ZM153.072 17.984L151.461 15.453L151.448 15.4614L151.435 15.47L153.072 17.984ZM165.504 19.664L163.172 21.5516L163.189 21.5719L163.205 21.5918L165.504 19.664ZM168 44V47H171V44H168ZM159.264 44H156.264V47H159.264V44ZM158.16 25.616L155.908 27.5979L155.95 27.6457L155.994 27.6917L158.16 25.616ZM152.208 25.616L150.044 23.5384L150.042 23.5403L152.208 25.616ZM151.104 44V47H154.104V44H151.104ZM145.368 44V17.504H139.368V44H145.368ZM142.368 20.504H149.28V14.504H142.368V20.504ZM146.28 17.504V28.88H152.28V17.504H146.28ZM149.28 25.88H148.896V31.88H149.28V25.88ZM151.896 28.88C151.896 26.3552 152.223 24.488 152.744 23.161L147.16 20.967C146.273 23.224 145.896 25.9008 145.896 28.88H151.896ZM152.751 23.1442C153.272 21.7932 153.956 20.9883 154.709 20.498L151.435 15.47C149.436 16.7717 148.04 18.6868 147.153 20.9838L152.751 23.1442ZM154.683 20.515C155.525 19.979 156.637 19.64 158.16 19.64V13.64C155.715 13.64 153.435 14.197 151.461 15.453L154.683 20.515ZM158.16 19.64H158.544V13.64H158.16V19.64ZM158.544 19.64C160.809 19.64 162.205 20.3562 163.172 21.5516L167.836 17.7764C165.539 14.9398 162.295 13.64 158.544 13.64V19.64ZM163.205 21.5918C164.215 22.7957 165 25.0152 165 28.832H171C171 24.3928 170.121 20.5003 167.803 17.7362L163.205 21.5918ZM165 28.832V44H171V28.832H165ZM168 41H159.264V47H168V41ZM162.264 44V28.592H156.264V44H162.264ZM162.264 28.592C162.264 26.722 161.675 24.9475 160.326 23.5403L155.994 27.6917C156.117 27.8205 156.264 28.03 156.264 28.592H162.264ZM160.412 23.6341C159.039 22.0742 157.18 21.416 155.232 21.416V27.416C155.78 27.416 155.873 27.5578 155.908 27.5979L160.412 23.6341ZM155.232 21.416C153.28 21.416 151.451 22.0726 150.044 23.5384L154.372 27.6936C154.501 27.5594 154.688 27.416 155.232 27.416V21.416ZM150.042 23.5403C148.665 24.9768 148.104 26.8015 148.104 28.688H154.104C154.104 28.0145 154.279 27.7912 154.374 27.6917L150.042 23.5403ZM148.104 28.688V44H154.104V28.688H148.104ZM151.104 41H142.368V47H151.104V41ZM179.388 43.808L178.17 46.5494L178.17 46.5494L179.388 43.808ZM175.02 40.688L177.247 38.6781L177.247 38.6781L175.02 40.688ZM172.284 36.272L169.473 37.3193L169.482 37.3434L169.491 37.3673L172.284 36.272ZM172.284 25.136L169.484 24.0591L169.478 24.0738L169.473 24.0887L172.284 25.136ZM174.972 20.72L172.77 18.6829L172.756 18.6979L172.742 18.7131L174.972 20.72ZM179.292 17.696L180.486 20.448L180.508 20.4386L180.53 20.4289L179.292 17.696ZM192.3 18.464L190.674 20.9849L190.674 20.9849L192.3 18.464ZM196.86 23.552L194.177 24.8936L194.181 24.9019L194.185 24.9101L196.86 23.552ZM198.444 33.152V36.152H201.444V33.152H198.444ZM175.02 33.152H172.02V36.152H175.02V33.152ZM175.02 28.448V25.448H172.02V28.448H175.02ZM193.404 28.448L195.122 30.9075L202.939 25.448H193.404V28.448ZM190.38 30.56H187.38V36.3145L192.098 33.0195L190.38 30.56ZM189.756 26.768L186.937 27.7932L186.956 27.8455L186.977 27.8971L189.756 26.768ZM187.98 24.368L186.246 26.8161L186.269 26.8327L186.293 26.8488L187.98 24.368ZM182.028 24.368L183.6 26.923L183.613 26.9149L183.626 26.9067L182.028 24.368ZM180.108 26.768L182.87 27.9396L182.876 27.925L182.882 27.9102L180.108 26.768ZM180.06 34.64L177.258 35.7114L177.263 35.7255L177.269 35.7396L180.06 34.64ZM181.98 37.088L183.644 34.5918L183.644 34.5918L181.98 37.088ZM188.316 37.328L186.932 34.6663L186.909 34.678L186.887 34.6901L188.316 37.328ZM189.996 35.648V32.648H188.064L187.265 34.4066L189.996 35.648ZM197.964 35.648L200.897 36.2766L201.675 32.648H197.964V35.648ZM195.66 40.448L193.338 38.5483L193.325 38.5643L193.312 38.5804L195.66 40.448ZM191.34 43.76L190.099 41.0289L190.089 41.0332L190.08 41.0376L191.34 43.76ZM185.34 41.96C183.443 41.96 181.887 41.6356 180.606 41.0666L178.17 46.5494C180.345 47.5164 182.757 47.96 185.34 47.96V41.96ZM180.606 41.0666C179.235 40.457 178.13 39.6569 177.247 38.6781L172.793 42.6979C174.278 44.3431 176.085 45.623 178.17 46.5494L180.606 41.0666ZM177.247 38.6781C176.303 37.6322 175.584 36.4695 175.077 35.1767L169.491 37.3673C170.264 39.3385 171.369 41.1198 172.793 42.6979L177.247 38.6781ZM175.095 35.2247C174.611 33.9251 174.372 32.5996 174.372 31.232H168.372C168.372 33.3204 168.741 35.3549 169.473 37.3193L175.095 35.2247ZM174.372 31.232V30.272H168.372V31.232H174.372ZM174.372 30.272C174.372 28.827 174.616 27.4705 175.095 26.1833L169.473 24.0887C168.736 26.0655 168.372 28.133 168.372 30.272H174.372ZM175.084 26.2129C175.597 24.8789 176.304 23.7247 177.202 22.7269L172.742 18.7131C171.336 20.2753 170.251 22.0651 169.484 24.0591L175.084 26.2129ZM177.174 22.7571C178.059 21.801 179.149 21.0284 180.486 20.448L178.098 14.944C176.043 15.8356 174.253 17.079 172.77 18.6829L177.174 22.7571ZM180.53 20.4289C181.782 19.8617 183.27 19.544 185.052 19.544V13.544C182.546 13.544 180.194 13.9943 178.054 14.9631L180.53 20.4289ZM185.052 19.544C187.443 19.544 189.266 20.077 190.674 20.9849L193.926 15.9431C191.366 14.291 188.357 13.544 185.052 13.544V19.544ZM190.674 20.9849C192.206 21.9735 193.361 23.2622 194.177 24.8936L199.543 22.2104C198.247 19.6178 196.362 17.5145 193.926 15.9431L190.674 20.9849ZM194.185 24.9101C195.015 26.5456 195.444 28.3486 195.444 30.368H201.444C201.444 27.4594 200.817 24.7184 199.535 22.1939L194.185 24.9101ZM195.444 30.368V33.152H201.444V30.368H195.444ZM198.444 30.152H175.02V36.152H198.444V30.152ZM178.02 33.152V28.448H172.02V33.152H178.02ZM175.02 31.448H193.404V25.448H175.02V31.448ZM191.686 25.9885L188.662 28.1005L192.098 33.0195L195.122 30.9075L191.686 25.9885ZM193.38 30.56C193.38 28.7998 193.139 27.1256 192.535 25.6389L186.977 27.8971C187.205 28.4584 187.38 29.3122 187.38 30.56H193.38ZM192.575 25.7428C192.012 24.1936 191.069 22.8404 189.667 21.8872L186.293 26.8488C186.491 26.9836 186.732 27.2304 186.937 27.7932L192.575 25.7428ZM189.714 21.9199C188.322 20.9337 186.696 20.552 185.052 20.552V26.552C185.776 26.552 186.102 26.7143 186.246 26.8161L189.714 21.9199ZM185.052 20.552C183.409 20.552 181.832 20.9465 180.43 21.8293L183.626 26.9067C183.952 26.7015 184.391 26.552 185.052 26.552V20.552ZM180.456 21.813C178.981 22.7205 177.973 24.0743 177.334 25.6257L182.882 27.9102C183.139 27.2857 183.411 27.0395 183.6 26.923L180.456 21.813ZM177.346 25.5963C176.689 27.1446 176.436 28.9228 176.436 30.8H182.436C182.436 29.4132 182.631 28.5034 182.87 27.9396L177.346 25.5963ZM176.436 30.8C176.436 32.5456 176.682 34.2044 177.258 35.7114L182.862 33.5686C182.606 32.8996 182.436 31.9984 182.436 30.8H176.436ZM177.269 35.7396C177.887 37.3097 178.895 38.6369 180.316 39.5842L183.644 34.5918C183.337 34.3871 183.065 34.0823 182.851 33.5404L177.269 35.7396ZM180.316 39.5841C181.81 40.5799 183.561 40.952 185.34 40.952V34.952C184.367 34.952 183.878 34.7481 183.644 34.5918L180.316 39.5841ZM185.34 40.952C186.87 40.952 188.4 40.6944 189.745 39.9659L186.887 34.6901C186.696 34.7936 186.242 34.952 185.34 34.952V40.952ZM189.7 39.9897C190.992 39.3178 192.085 38.3021 192.727 36.8894L187.265 34.4066C187.257 34.4232 187.247 34.4428 187.215 34.4747C187.179 34.5103 187.097 34.5805 186.932 34.6663L189.7 39.9897ZM189.996 38.648H197.964V32.648H189.996V38.648ZM195.031 35.0194C194.746 36.3487 194.186 37.5122 193.338 38.5483L197.982 42.3477C199.438 40.5678 200.414 38.5313 200.897 36.2766L195.031 35.0194ZM193.312 38.5804C192.509 39.5898 191.46 40.4102 190.099 41.0289L192.581 46.4911C194.74 45.5098 196.571 44.1222 198.008 42.3156L193.312 38.5804ZM190.08 41.0376C188.816 41.6228 187.26 41.96 185.34 41.96V47.96C187.964 47.96 190.408 47.4972 192.6 46.4824L190.08 41.0376ZM202.089 44H199.089V47H202.089V44ZM202.089 17.504V14.504H199.089V17.504H202.089ZM209.001 17.504H212.001V14.504H209.001V17.504ZM209.001 29.024V32.024H212.001V29.024H209.001ZM208.905 29.024H205.905V32.024H208.905V29.024ZM211.209 20.288L208.8 18.4997L208.791 18.5115L208.782 18.5235L211.209 20.288ZM218.985 17.12H221.985V14.12H218.985V17.12ZM218.985 24.608V27.608H221.985V24.608H218.985ZM212.409 26.192L210.319 24.0393L210.303 24.0548L210.287 24.0707L212.409 26.192ZM210.825 44V47H213.825V44H210.825ZM205.089 44V17.504H199.089V44H205.089ZM202.089 20.504H209.001V14.504H202.089V20.504ZM206.001 17.504V29.024H212.001V17.504H206.001ZM209.001 26.024H208.905V32.024H209.001V26.024ZM211.905 29.024C211.905 25.6877 212.599 23.4763 213.635 22.0525L208.782 18.5235C206.746 21.3237 205.905 24.9363 205.905 29.024H211.905ZM213.617 22.0763C214.553 20.8161 215.849 20.12 217.929 20.12V14.12C214.185 14.12 211 15.5359 208.8 18.4997L213.617 22.0763ZM217.929 20.12H218.985V14.12H217.929V20.12ZM215.985 17.12V24.608H221.985V17.12H215.985ZM218.985 21.608H216.969V27.608H218.985V21.608ZM216.969 21.608C214.47 21.608 212.115 22.2965 210.319 24.0393L214.498 28.3447C214.879 27.9755 215.563 27.608 216.969 27.608V21.608ZM210.287 24.0707C208.503 25.8553 207.825 28.2427 207.825 30.752H213.825C213.825 29.2933 214.203 28.6407 214.53 28.3133L210.287 24.0707ZM207.825 30.752V44H213.825V30.752H207.825ZM210.825 41H202.089V47H210.825V41Z" fill="black" mask="url(#path-1-outside-1_481_8)"/>
</g>
<defs>
<clipPath id="clip0_481_8">
<rect width="229" height="61" fill="white"/>
</clipPath>
</defs>
</svg>
