<svg width="64" height="64" viewBox="0 0 64 64" fill="none" xmlns="http://www.w3.org/2000/svg">
<rect width="64" height="64" rx="32" fill="white"/>
<path d="M44.1229 26.6634C44.1229 28.3547 44.5554 32.4159 44.5554 34.8354C44.8437 34.5311 45.1085 34.2572 45.3543 34M44.1229 26.6634C43.973 26.6634 43.8235 26.6622 43.6745 26.6599M44.1229 26.6634L41 10.1182M44.1229 26.6634L42.2244 10.3517M27.8452 22.1754C27.8548 22.7679 27.796 23.3365 27.6846 23.8786M27.8452 22.1754L24.7961 14.7407M27.8452 22.1754C28.2381 22.4355 28.7565 22.7408 29.3848 23.0676M22.9926 30.566C22.9926 30.566 23.7002 32.6149 24.1052 37.2003M22.9926 30.566L16.7743 18.85M22.9926 30.566C22.9926 30.566 23.41 30.2855 24 29.7627M24.1052 37.2003C24.4302 40.869 23.4976 40.16 22.9926 39.3469M24.1052 37.2003L15.5613 20.3514M22.9926 39.3469L14.629 22.1754M22.9926 39.3469C22.0091 36.2867 20.6006 35.8479 19.4783 36.2465M28.4527 14.3703C28.1584 14.3414 27.7632 14.3393 27.2918 14.3703M28.4527 14.3703L32 24.2593M28.4527 14.3703C28.7516 14.1243 29.0632 13.8842 29.3848 13.6511M37.7328 10.0728C37.3161 10.1131 36.8722 10.1895 36.4092 10.2983M37.7328 10.0728L42 26.5869M37.7328 10.0728C38.1106 10.0364 38.4804 10.0138 38.842 10.0047M14.629 22.1754C14.2722 23.1186 14.052 24.1664 14.0081 25.3286M14.629 22.1754C14.8778 21.5176 15.1931 20.9107 15.5613 20.3514M14.0081 25.3286C13.8915 28.4167 15.02 32.3126 18.1401 37.2003C18.4682 36.821 18.9404 36.4375 19.4783 36.2465M14.0081 25.3286L19.4783 36.2465M15.5613 20.3514C15.9196 19.8069 16.3281 19.3075 16.7743 18.85M16.7743 18.85C17.1221 18.4935 17.4927 18.1625 17.8803 17.8555M24 29.7627L17.8803 17.8555M24 29.7627C24.242 29.5484 24.513 29.2932 24.7961 29M17.8803 17.8555C18.1982 17.6038 18.5276 17.3682 18.8651 17.148M18.8651 17.148L24.7961 29M18.8651 17.148C19.1779 16.944 19.4977 16.7531 19.8219 16.5749M24.7961 29C25.0414 28.7461 25.2957 28.4635 25.5482 28.1542M25.5482 28.1542L19.8219 16.5749M25.5482 28.1542C25.7598 27.8949 25.9701 27.6168 26.1726 27.3209M19.8219 16.5749C20.11 16.4165 20.4015 16.268 20.6948 16.129M20.6948 16.129L26.1726 27.3209M20.6948 16.129C21.052 15.9597 21.4118 15.8044 21.7708 15.6623M26.1726 27.3209C26.4056 26.9803 26.6284 26.616 26.831 26.2297M26.831 26.2297L21.7708 15.6623M26.831 26.2297C27.0045 25.899 27.1632 25.5521 27.301 25.19M21.7708 15.6623C22.0468 15.5531 22.3224 15.4517 22.5961 15.3578M22.5961 15.3578L27.301 25.19M22.5961 15.3578C22.9869 15.2237 23.3736 15.1048 23.7521 15M27.301 25.19C27.4599 24.7726 27.5909 24.335 27.6846 23.8786M27.6846 23.8786L23.7521 15M23.7521 15C24.1087 14.9013 24.4579 14.8152 24.7961 14.7407M24.7961 14.7407C25.1748 14.6573 25.5397 14.5886 25.8857 14.5332M25.8857 14.5332L29.3848 23.0676M25.8857 14.5332C26.4022 14.4505 26.8765 14.3976 27.2918 14.3703M29.3848 23.0676C29.8043 23.2858 30.2727 23.5137 30.7855 23.7442M27.2918 14.3703L30.7855 23.7442M30.7855 23.7442C31.1665 23.9154 31.572 24.088 32 24.2593M32 24.2593C32.3913 24.4158 32.8015 24.5712 33.2291 24.7231M29.3848 13.6511L33.2291 24.7231M29.3848 13.6511C29.6938 13.4271 30.012 13.2097 30.3369 13M33.2291 24.7231C33.5641 24.8422 33.9098 24.9592 34.2655 25.073M30.3369 13L34.2655 25.073M30.3369 13C30.6645 12.7886 30.9988 12.585 31.3373 12.3904M34.2655 25.073C34.6137 25.1845 34.9714 25.2929 35.3381 25.3973M35.3381 25.3973L31.3373 12.3904M35.3381 25.3973C35.7309 25.5092 36.134 25.6165 36.5464 25.718M31.3373 12.3904C31.6305 12.2219 31.9269 12.0602 32.2247 11.906M32.2247 11.906L36.5464 25.718M32.2247 11.906C32.6009 11.7112 32.9794 11.5285 33.3569 11.3594M36.5464 25.718C36.9338 25.8133 37.3295 25.9035 37.7328 25.9875M37.7328 25.9875L33.3569 11.3594M37.7328 25.9875C38.0965 26.0633 38.4664 26.1342 38.842 26.1993M33.3569 11.3594C33.6865 11.2118 34.0153 11.0745 34.3411 10.9486M34.3411 10.9486L38.842 26.1993M34.3411 10.9486C34.6775 10.8187 35.0107 10.7009 35.3381 10.5964M38.842 26.1993C39.1889 26.2594 39.5406 26.3146 39.8969 26.3644M39.8969 26.3644L35.3381 10.5964M39.8969 26.3644C40.2601 26.4151 40.6279 26.4602 41 26.499M35.3381 10.5964C35.7035 10.4799 36.0617 10.38 36.4092 10.2983M36.4092 10.2983L41 26.499M41 26.499C41.3301 26.5334 41.6635 26.5628 42 26.5869M42 26.5869C42.2749 26.6066 42.5519 26.6226 42.8308 26.6349M38.842 10.0047L42.8308 26.6349M38.842 10.0047C39.2714 9.99384 39.6893 10.0019 40.0956 10.028M42.8308 26.6349C43.1102 26.6472 43.3915 26.6556 43.6745 26.6599M43.6745 26.6599L40.0956 10.028M40.0956 10.028C40.4038 10.0478 40.7053 10.078 41 10.1182M41 10.1182C41.4221 10.1759 41.8303 10.254 42.2244 10.3517M42.2244 10.3517C42.6053 10.4461 42.973 10.5587 43.3273 10.6885M43.3273 10.6885L45.3543 34M43.3273 10.6885C43.6788 10.8172 44.0172 10.963 44.3423 11.1247M45.3543 34C45.6309 33.7106 45.8834 33.4426 46.1181 33.1767M46.1181 33.1767L44.3423 11.1247M46.1181 33.1767C46.44 32.812 46.7286 32.4513 47 32.0455M44.3423 11.1247C44.6954 11.3004 45.0328 11.4949 45.3543 11.7072M45.3543 11.7072L47 32.0455M45.3543 11.7072C45.8198 12.0146 46.252 12.359 46.6499 12.7368M47 32.0455C47.2099 31.7316 47.4095 31.3908 47.6065 31M47.6065 31L46.6499 12.7368M47.6065 31C47.8613 30.4945 48.1117 29.9056 48.3739 29.1838M46.6499 12.7368C46.9513 13.0229 47.2332 13.3282 47.4951 13.6511M47.4951 13.6511L48.3739 29.1838M47.4951 13.6511C47.9366 14.1953 48.3216 14.7893 48.6486 15.4256M48.3739 29.1838C48.553 28.691 48.7376 28.1362 48.9329 27.5038M48.9329 27.5038C49.0418 27.1513 49.154 26.7747 49.2705 26.3713C50.4403 22.3201 50.1819 18.4088 48.6486 15.4256M48.9329 27.5038L48.6486 15.4256M23.1428 44.1847C24.4272 51.9813 33.0448 57.5878 39.2644 51.2717C45.4839 44.9559 44.2386 33.3949 43.5744 28M17.9995 36C17.2451 37.8997 18.2098 44.0546 23.1429 44.0546M43.5714 43.0601C45.1982 42.3787 47.7036 39.571 47.2617 35.53M32.9995 48C34.9995 49 34.9995 47 36.7143 45.9016M39.562 37.6814C39.562 37.9484 39.3444 38.1649 39.0759 38.1649M39.562 37.6814C39.562 37.4145 39.3444 37.198 39.0759 37.198M39.562 37.6814H38.5898M39.0759 38.1649C38.8074 38.1649 38.5898 37.9484 38.5898 37.6814M39.0759 38.1649V37.198M38.5898 37.6814C38.5898 37.4145 38.8074 37.198 39.0759 37.198M29.8403 37.9232C29.8403 38.1902 29.6227 38.4066 29.3542 38.4066M29.8403 37.9232C29.8403 37.6562 29.6227 37.4397 29.3542 37.4397M29.8403 37.9232H28.8681M29.3542 38.4066C29.0857 38.4066 28.8681 38.1902 28.8681 37.9232M29.3542 38.4066V37.4397M28.8681 37.9232C28.8681 37.6562 29.0857 37.4397 29.3542 37.4397M26.5709 34.3504C26.806 33.7502 27.8223 32.6398 29.9995 33M37.5709 33C38.0901 32.6784 39.5031 32.228 40.9995 33M33.6856 37.519C33.5213 38.8766 33.4069 41.6298 34.2858 41.7813" stroke="black" stroke-width="2" stroke-linecap="round"/>
</svg>
